%TF.GenerationSoftware,KiCad,Pcbnew,(5.1.10-1-10_14)*%
%TF.CreationDate,2021-11-16T12:10:24+01:00*%
%TF.ProjectId,Atari Export,41746172-6920-4457-9870-6f72742e6b69,rev?*%
%TF.SameCoordinates,Original*%
%TF.FileFunction,Paste,Top*%
%TF.FilePolarity,Positive*%
%FSLAX46Y46*%
G04 Gerber Fmt 4.6, Leading zero omitted, Abs format (unit mm)*
G04 Created by KiCad (PCBNEW (5.1.10-1-10_14)) date 2021-11-16 12:10:24*
%MOMM*%
%LPD*%
G01*
G04 APERTURE LIST*
%ADD10R,0.700000X0.600000*%
%ADD11R,0.500000X0.500000*%
G04 APERTURE END LIST*
%TO.C,C2*%
G36*
G01*
X110702000Y-53782000D02*
X111802000Y-53782000D01*
G75*
G02*
X112052000Y-54032000I0J-250000D01*
G01*
X112052000Y-57032000D01*
G75*
G02*
X111802000Y-57282000I-250000J0D01*
G01*
X110702000Y-57282000D01*
G75*
G02*
X110452000Y-57032000I0J250000D01*
G01*
X110452000Y-54032000D01*
G75*
G02*
X110702000Y-53782000I250000J0D01*
G01*
G37*
G36*
G01*
X110702000Y-48382000D02*
X111802000Y-48382000D01*
G75*
G02*
X112052000Y-48632000I0J-250000D01*
G01*
X112052000Y-51632000D01*
G75*
G02*
X111802000Y-51882000I-250000J0D01*
G01*
X110702000Y-51882000D01*
G75*
G02*
X110452000Y-51632000I0J250000D01*
G01*
X110452000Y-48632000D01*
G75*
G02*
X110702000Y-48382000I250000J0D01*
G01*
G37*
%TD*%
%TO.C,C1*%
G36*
G01*
X110702000Y-64704000D02*
X111802000Y-64704000D01*
G75*
G02*
X112052000Y-64954000I0J-250000D01*
G01*
X112052000Y-67954000D01*
G75*
G02*
X111802000Y-68204000I-250000J0D01*
G01*
X110702000Y-68204000D01*
G75*
G02*
X110452000Y-67954000I0J250000D01*
G01*
X110452000Y-64954000D01*
G75*
G02*
X110702000Y-64704000I250000J0D01*
G01*
G37*
G36*
G01*
X110702000Y-59304000D02*
X111802000Y-59304000D01*
G75*
G02*
X112052000Y-59554000I0J-250000D01*
G01*
X112052000Y-62554000D01*
G75*
G02*
X111802000Y-62804000I-250000J0D01*
G01*
X110702000Y-62804000D01*
G75*
G02*
X110452000Y-62554000I0J250000D01*
G01*
X110452000Y-59554000D01*
G75*
G02*
X110702000Y-59304000I250000J0D01*
G01*
G37*
%TD*%
%TO.C,R9*%
G36*
G01*
X110125500Y-102152000D02*
X110600500Y-102152000D01*
G75*
G02*
X110838000Y-102389500I0J-237500D01*
G01*
X110838000Y-102889500D01*
G75*
G02*
X110600500Y-103127000I-237500J0D01*
G01*
X110125500Y-103127000D01*
G75*
G02*
X109888000Y-102889500I0J237500D01*
G01*
X109888000Y-102389500D01*
G75*
G02*
X110125500Y-102152000I237500J0D01*
G01*
G37*
G36*
G01*
X110125500Y-100327000D02*
X110600500Y-100327000D01*
G75*
G02*
X110838000Y-100564500I0J-237500D01*
G01*
X110838000Y-101064500D01*
G75*
G02*
X110600500Y-101302000I-237500J0D01*
G01*
X110125500Y-101302000D01*
G75*
G02*
X109888000Y-101064500I0J237500D01*
G01*
X109888000Y-100564500D01*
G75*
G02*
X110125500Y-100327000I237500J0D01*
G01*
G37*
%TD*%
%TO.C,R5*%
G36*
G01*
X110600500Y-97365000D02*
X110125500Y-97365000D01*
G75*
G02*
X109888000Y-97127500I0J237500D01*
G01*
X109888000Y-96627500D01*
G75*
G02*
X110125500Y-96390000I237500J0D01*
G01*
X110600500Y-96390000D01*
G75*
G02*
X110838000Y-96627500I0J-237500D01*
G01*
X110838000Y-97127500D01*
G75*
G02*
X110600500Y-97365000I-237500J0D01*
G01*
G37*
G36*
G01*
X110600500Y-99190000D02*
X110125500Y-99190000D01*
G75*
G02*
X109888000Y-98952500I0J237500D01*
G01*
X109888000Y-98452500D01*
G75*
G02*
X110125500Y-98215000I237500J0D01*
G01*
X110600500Y-98215000D01*
G75*
G02*
X110838000Y-98452500I0J-237500D01*
G01*
X110838000Y-98952500D01*
G75*
G02*
X110600500Y-99190000I-237500J0D01*
G01*
G37*
%TD*%
%TO.C,R4*%
G36*
G01*
X110252500Y-94151000D02*
X110727500Y-94151000D01*
G75*
G02*
X110965000Y-94388500I0J-237500D01*
G01*
X110965000Y-94888500D01*
G75*
G02*
X110727500Y-95126000I-237500J0D01*
G01*
X110252500Y-95126000D01*
G75*
G02*
X110015000Y-94888500I0J237500D01*
G01*
X110015000Y-94388500D01*
G75*
G02*
X110252500Y-94151000I237500J0D01*
G01*
G37*
G36*
G01*
X110252500Y-92326000D02*
X110727500Y-92326000D01*
G75*
G02*
X110965000Y-92563500I0J-237500D01*
G01*
X110965000Y-93063500D01*
G75*
G02*
X110727500Y-93301000I-237500J0D01*
G01*
X110252500Y-93301000D01*
G75*
G02*
X110015000Y-93063500I0J237500D01*
G01*
X110015000Y-92563500D01*
G75*
G02*
X110252500Y-92326000I237500J0D01*
G01*
G37*
%TD*%
%TO.C,R6*%
G36*
G01*
X109176000Y-76470500D02*
X109176000Y-76945500D01*
G75*
G02*
X108938500Y-77183000I-237500J0D01*
G01*
X108438500Y-77183000D01*
G75*
G02*
X108201000Y-76945500I0J237500D01*
G01*
X108201000Y-76470500D01*
G75*
G02*
X108438500Y-76233000I237500J0D01*
G01*
X108938500Y-76233000D01*
G75*
G02*
X109176000Y-76470500I0J-237500D01*
G01*
G37*
G36*
G01*
X111001000Y-76470500D02*
X111001000Y-76945500D01*
G75*
G02*
X110763500Y-77183000I-237500J0D01*
G01*
X110263500Y-77183000D01*
G75*
G02*
X110026000Y-76945500I0J237500D01*
G01*
X110026000Y-76470500D01*
G75*
G02*
X110263500Y-76233000I237500J0D01*
G01*
X110763500Y-76233000D01*
G75*
G02*
X111001000Y-76470500I0J-237500D01*
G01*
G37*
%TD*%
%TO.C,U1*%
G36*
G01*
X112752000Y-81811000D02*
X112752000Y-81511000D01*
G75*
G02*
X112902000Y-81361000I150000J0D01*
G01*
X114552000Y-81361000D01*
G75*
G02*
X114702000Y-81511000I0J-150000D01*
G01*
X114702000Y-81811000D01*
G75*
G02*
X114552000Y-81961000I-150000J0D01*
G01*
X112902000Y-81961000D01*
G75*
G02*
X112752000Y-81811000I0J150000D01*
G01*
G37*
G36*
G01*
X112752000Y-83081000D02*
X112752000Y-82781000D01*
G75*
G02*
X112902000Y-82631000I150000J0D01*
G01*
X114552000Y-82631000D01*
G75*
G02*
X114702000Y-82781000I0J-150000D01*
G01*
X114702000Y-83081000D01*
G75*
G02*
X114552000Y-83231000I-150000J0D01*
G01*
X112902000Y-83231000D01*
G75*
G02*
X112752000Y-83081000I0J150000D01*
G01*
G37*
G36*
G01*
X112752000Y-84351000D02*
X112752000Y-84051000D01*
G75*
G02*
X112902000Y-83901000I150000J0D01*
G01*
X114552000Y-83901000D01*
G75*
G02*
X114702000Y-84051000I0J-150000D01*
G01*
X114702000Y-84351000D01*
G75*
G02*
X114552000Y-84501000I-150000J0D01*
G01*
X112902000Y-84501000D01*
G75*
G02*
X112752000Y-84351000I0J150000D01*
G01*
G37*
G36*
G01*
X112752000Y-85621000D02*
X112752000Y-85321000D01*
G75*
G02*
X112902000Y-85171000I150000J0D01*
G01*
X114552000Y-85171000D01*
G75*
G02*
X114702000Y-85321000I0J-150000D01*
G01*
X114702000Y-85621000D01*
G75*
G02*
X114552000Y-85771000I-150000J0D01*
G01*
X112902000Y-85771000D01*
G75*
G02*
X112752000Y-85621000I0J150000D01*
G01*
G37*
G36*
G01*
X112752000Y-86891000D02*
X112752000Y-86591000D01*
G75*
G02*
X112902000Y-86441000I150000J0D01*
G01*
X114552000Y-86441000D01*
G75*
G02*
X114702000Y-86591000I0J-150000D01*
G01*
X114702000Y-86891000D01*
G75*
G02*
X114552000Y-87041000I-150000J0D01*
G01*
X112902000Y-87041000D01*
G75*
G02*
X112752000Y-86891000I0J150000D01*
G01*
G37*
G36*
G01*
X112752000Y-88161000D02*
X112752000Y-87861000D01*
G75*
G02*
X112902000Y-87711000I150000J0D01*
G01*
X114552000Y-87711000D01*
G75*
G02*
X114702000Y-87861000I0J-150000D01*
G01*
X114702000Y-88161000D01*
G75*
G02*
X114552000Y-88311000I-150000J0D01*
G01*
X112902000Y-88311000D01*
G75*
G02*
X112752000Y-88161000I0J150000D01*
G01*
G37*
G36*
G01*
X112752000Y-89431000D02*
X112752000Y-89131000D01*
G75*
G02*
X112902000Y-88981000I150000J0D01*
G01*
X114552000Y-88981000D01*
G75*
G02*
X114702000Y-89131000I0J-150000D01*
G01*
X114702000Y-89431000D01*
G75*
G02*
X114552000Y-89581000I-150000J0D01*
G01*
X112902000Y-89581000D01*
G75*
G02*
X112752000Y-89431000I0J150000D01*
G01*
G37*
G36*
G01*
X112752000Y-90701000D02*
X112752000Y-90401000D01*
G75*
G02*
X112902000Y-90251000I150000J0D01*
G01*
X114552000Y-90251000D01*
G75*
G02*
X114702000Y-90401000I0J-150000D01*
G01*
X114702000Y-90701000D01*
G75*
G02*
X114552000Y-90851000I-150000J0D01*
G01*
X112902000Y-90851000D01*
G75*
G02*
X112752000Y-90701000I0J150000D01*
G01*
G37*
G36*
G01*
X107802000Y-90701000D02*
X107802000Y-90401000D01*
G75*
G02*
X107952000Y-90251000I150000J0D01*
G01*
X109602000Y-90251000D01*
G75*
G02*
X109752000Y-90401000I0J-150000D01*
G01*
X109752000Y-90701000D01*
G75*
G02*
X109602000Y-90851000I-150000J0D01*
G01*
X107952000Y-90851000D01*
G75*
G02*
X107802000Y-90701000I0J150000D01*
G01*
G37*
G36*
G01*
X107802000Y-89431000D02*
X107802000Y-89131000D01*
G75*
G02*
X107952000Y-88981000I150000J0D01*
G01*
X109602000Y-88981000D01*
G75*
G02*
X109752000Y-89131000I0J-150000D01*
G01*
X109752000Y-89431000D01*
G75*
G02*
X109602000Y-89581000I-150000J0D01*
G01*
X107952000Y-89581000D01*
G75*
G02*
X107802000Y-89431000I0J150000D01*
G01*
G37*
G36*
G01*
X107802000Y-88161000D02*
X107802000Y-87861000D01*
G75*
G02*
X107952000Y-87711000I150000J0D01*
G01*
X109602000Y-87711000D01*
G75*
G02*
X109752000Y-87861000I0J-150000D01*
G01*
X109752000Y-88161000D01*
G75*
G02*
X109602000Y-88311000I-150000J0D01*
G01*
X107952000Y-88311000D01*
G75*
G02*
X107802000Y-88161000I0J150000D01*
G01*
G37*
G36*
G01*
X107802000Y-86891000D02*
X107802000Y-86591000D01*
G75*
G02*
X107952000Y-86441000I150000J0D01*
G01*
X109602000Y-86441000D01*
G75*
G02*
X109752000Y-86591000I0J-150000D01*
G01*
X109752000Y-86891000D01*
G75*
G02*
X109602000Y-87041000I-150000J0D01*
G01*
X107952000Y-87041000D01*
G75*
G02*
X107802000Y-86891000I0J150000D01*
G01*
G37*
G36*
G01*
X107802000Y-85621000D02*
X107802000Y-85321000D01*
G75*
G02*
X107952000Y-85171000I150000J0D01*
G01*
X109602000Y-85171000D01*
G75*
G02*
X109752000Y-85321000I0J-150000D01*
G01*
X109752000Y-85621000D01*
G75*
G02*
X109602000Y-85771000I-150000J0D01*
G01*
X107952000Y-85771000D01*
G75*
G02*
X107802000Y-85621000I0J150000D01*
G01*
G37*
G36*
G01*
X107802000Y-84351000D02*
X107802000Y-84051000D01*
G75*
G02*
X107952000Y-83901000I150000J0D01*
G01*
X109602000Y-83901000D01*
G75*
G02*
X109752000Y-84051000I0J-150000D01*
G01*
X109752000Y-84351000D01*
G75*
G02*
X109602000Y-84501000I-150000J0D01*
G01*
X107952000Y-84501000D01*
G75*
G02*
X107802000Y-84351000I0J150000D01*
G01*
G37*
G36*
G01*
X107802000Y-83081000D02*
X107802000Y-82781000D01*
G75*
G02*
X107952000Y-82631000I150000J0D01*
G01*
X109602000Y-82631000D01*
G75*
G02*
X109752000Y-82781000I0J-150000D01*
G01*
X109752000Y-83081000D01*
G75*
G02*
X109602000Y-83231000I-150000J0D01*
G01*
X107952000Y-83231000D01*
G75*
G02*
X107802000Y-83081000I0J150000D01*
G01*
G37*
G36*
G01*
X107802000Y-81811000D02*
X107802000Y-81511000D01*
G75*
G02*
X107952000Y-81361000I150000J0D01*
G01*
X109602000Y-81361000D01*
G75*
G02*
X109752000Y-81511000I0J-150000D01*
G01*
X109752000Y-81811000D01*
G75*
G02*
X109602000Y-81961000I-150000J0D01*
G01*
X107952000Y-81961000D01*
G75*
G02*
X107802000Y-81811000I0J150000D01*
G01*
G37*
%TD*%
%TO.C,R13*%
G36*
G01*
X115299500Y-98889000D02*
X114824500Y-98889000D01*
G75*
G02*
X114587000Y-98651500I0J237500D01*
G01*
X114587000Y-98151500D01*
G75*
G02*
X114824500Y-97914000I237500J0D01*
G01*
X115299500Y-97914000D01*
G75*
G02*
X115537000Y-98151500I0J-237500D01*
G01*
X115537000Y-98651500D01*
G75*
G02*
X115299500Y-98889000I-237500J0D01*
G01*
G37*
G36*
G01*
X115299500Y-100714000D02*
X114824500Y-100714000D01*
G75*
G02*
X114587000Y-100476500I0J237500D01*
G01*
X114587000Y-99976500D01*
G75*
G02*
X114824500Y-99739000I237500J0D01*
G01*
X115299500Y-99739000D01*
G75*
G02*
X115537000Y-99976500I0J-237500D01*
G01*
X115537000Y-100476500D01*
G75*
G02*
X115299500Y-100714000I-237500J0D01*
G01*
G37*
%TD*%
%TO.C,R12*%
G36*
G01*
X114029500Y-71965000D02*
X113554500Y-71965000D01*
G75*
G02*
X113317000Y-71727500I0J237500D01*
G01*
X113317000Y-71227500D01*
G75*
G02*
X113554500Y-70990000I237500J0D01*
G01*
X114029500Y-70990000D01*
G75*
G02*
X114267000Y-71227500I0J-237500D01*
G01*
X114267000Y-71727500D01*
G75*
G02*
X114029500Y-71965000I-237500J0D01*
G01*
G37*
G36*
G01*
X114029500Y-73790000D02*
X113554500Y-73790000D01*
G75*
G02*
X113317000Y-73552500I0J237500D01*
G01*
X113317000Y-73052500D01*
G75*
G02*
X113554500Y-72815000I237500J0D01*
G01*
X114029500Y-72815000D01*
G75*
G02*
X114267000Y-73052500I0J-237500D01*
G01*
X114267000Y-73552500D01*
G75*
G02*
X114029500Y-73790000I-237500J0D01*
G01*
G37*
%TD*%
%TO.C,R11*%
G36*
G01*
X115299500Y-57995000D02*
X114824500Y-57995000D01*
G75*
G02*
X114587000Y-57757500I0J237500D01*
G01*
X114587000Y-57257500D01*
G75*
G02*
X114824500Y-57020000I237500J0D01*
G01*
X115299500Y-57020000D01*
G75*
G02*
X115537000Y-57257500I0J-237500D01*
G01*
X115537000Y-57757500D01*
G75*
G02*
X115299500Y-57995000I-237500J0D01*
G01*
G37*
G36*
G01*
X115299500Y-59820000D02*
X114824500Y-59820000D01*
G75*
G02*
X114587000Y-59582500I0J237500D01*
G01*
X114587000Y-59082500D01*
G75*
G02*
X114824500Y-58845000I237500J0D01*
G01*
X115299500Y-58845000D01*
G75*
G02*
X115537000Y-59082500I0J-237500D01*
G01*
X115537000Y-59582500D01*
G75*
G02*
X115299500Y-59820000I-237500J0D01*
G01*
G37*
%TD*%
%TO.C,R10*%
G36*
G01*
X109303000Y-69231500D02*
X109303000Y-69706500D01*
G75*
G02*
X109065500Y-69944000I-237500J0D01*
G01*
X108565500Y-69944000D01*
G75*
G02*
X108328000Y-69706500I0J237500D01*
G01*
X108328000Y-69231500D01*
G75*
G02*
X108565500Y-68994000I237500J0D01*
G01*
X109065500Y-68994000D01*
G75*
G02*
X109303000Y-69231500I0J-237500D01*
G01*
G37*
G36*
G01*
X111128000Y-69231500D02*
X111128000Y-69706500D01*
G75*
G02*
X110890500Y-69944000I-237500J0D01*
G01*
X110390500Y-69944000D01*
G75*
G02*
X110153000Y-69706500I0J237500D01*
G01*
X110153000Y-69231500D01*
G75*
G02*
X110390500Y-68994000I237500J0D01*
G01*
X110890500Y-68994000D01*
G75*
G02*
X111128000Y-69231500I0J-237500D01*
G01*
G37*
%TD*%
%TO.C,R8*%
G36*
G01*
X108220500Y-98215000D02*
X108695500Y-98215000D01*
G75*
G02*
X108933000Y-98452500I0J-237500D01*
G01*
X108933000Y-98952500D01*
G75*
G02*
X108695500Y-99190000I-237500J0D01*
G01*
X108220500Y-99190000D01*
G75*
G02*
X107983000Y-98952500I0J237500D01*
G01*
X107983000Y-98452500D01*
G75*
G02*
X108220500Y-98215000I237500J0D01*
G01*
G37*
G36*
G01*
X108220500Y-96390000D02*
X108695500Y-96390000D01*
G75*
G02*
X108933000Y-96627500I0J-237500D01*
G01*
X108933000Y-97127500D01*
G75*
G02*
X108695500Y-97365000I-237500J0D01*
G01*
X108220500Y-97365000D01*
G75*
G02*
X107983000Y-97127500I0J237500D01*
G01*
X107983000Y-96627500D01*
G75*
G02*
X108220500Y-96390000I237500J0D01*
G01*
G37*
%TD*%
%TO.C,R7*%
G36*
G01*
X109049000Y-78883500D02*
X109049000Y-79358500D01*
G75*
G02*
X108811500Y-79596000I-237500J0D01*
G01*
X108311500Y-79596000D01*
G75*
G02*
X108074000Y-79358500I0J237500D01*
G01*
X108074000Y-78883500D01*
G75*
G02*
X108311500Y-78646000I237500J0D01*
G01*
X108811500Y-78646000D01*
G75*
G02*
X109049000Y-78883500I0J-237500D01*
G01*
G37*
G36*
G01*
X110874000Y-78883500D02*
X110874000Y-79358500D01*
G75*
G02*
X110636500Y-79596000I-237500J0D01*
G01*
X110136500Y-79596000D01*
G75*
G02*
X109899000Y-79358500I0J237500D01*
G01*
X109899000Y-78883500D01*
G75*
G02*
X110136500Y-78646000I237500J0D01*
G01*
X110636500Y-78646000D01*
G75*
G02*
X110874000Y-78883500I0J-237500D01*
G01*
G37*
%TD*%
%TO.C,R3*%
G36*
G01*
X113046500Y-58591000D02*
X113521500Y-58591000D01*
G75*
G02*
X113759000Y-58828500I0J-237500D01*
G01*
X113759000Y-59328500D01*
G75*
G02*
X113521500Y-59566000I-237500J0D01*
G01*
X113046500Y-59566000D01*
G75*
G02*
X112809000Y-59328500I0J237500D01*
G01*
X112809000Y-58828500D01*
G75*
G02*
X113046500Y-58591000I237500J0D01*
G01*
G37*
G36*
G01*
X113046500Y-56766000D02*
X113521500Y-56766000D01*
G75*
G02*
X113759000Y-57003500I0J-237500D01*
G01*
X113759000Y-57503500D01*
G75*
G02*
X113521500Y-57741000I-237500J0D01*
G01*
X113046500Y-57741000D01*
G75*
G02*
X112809000Y-57503500I0J237500D01*
G01*
X112809000Y-57003500D01*
G75*
G02*
X113046500Y-56766000I237500J0D01*
G01*
G37*
%TD*%
%TO.C,R2*%
G36*
G01*
X114029500Y-76029000D02*
X113554500Y-76029000D01*
G75*
G02*
X113317000Y-75791500I0J237500D01*
G01*
X113317000Y-75291500D01*
G75*
G02*
X113554500Y-75054000I237500J0D01*
G01*
X114029500Y-75054000D01*
G75*
G02*
X114267000Y-75291500I0J-237500D01*
G01*
X114267000Y-75791500D01*
G75*
G02*
X114029500Y-76029000I-237500J0D01*
G01*
G37*
G36*
G01*
X114029500Y-77854000D02*
X113554500Y-77854000D01*
G75*
G02*
X113317000Y-77616500I0J237500D01*
G01*
X113317000Y-77116500D01*
G75*
G02*
X113554500Y-76879000I237500J0D01*
G01*
X114029500Y-76879000D01*
G75*
G02*
X114267000Y-77116500I0J-237500D01*
G01*
X114267000Y-77616500D01*
G75*
G02*
X114029500Y-77854000I-237500J0D01*
G01*
G37*
%TD*%
%TO.C,R1*%
G36*
G01*
X115299500Y-103715000D02*
X114824500Y-103715000D01*
G75*
G02*
X114587000Y-103477500I0J237500D01*
G01*
X114587000Y-102977500D01*
G75*
G02*
X114824500Y-102740000I237500J0D01*
G01*
X115299500Y-102740000D01*
G75*
G02*
X115537000Y-102977500I0J-237500D01*
G01*
X115537000Y-103477500D01*
G75*
G02*
X115299500Y-103715000I-237500J0D01*
G01*
G37*
G36*
G01*
X115299500Y-105540000D02*
X114824500Y-105540000D01*
G75*
G02*
X114587000Y-105302500I0J237500D01*
G01*
X114587000Y-104802500D01*
G75*
G02*
X114824500Y-104565000I237500J0D01*
G01*
X115299500Y-104565000D01*
G75*
G02*
X115537000Y-104802500I0J-237500D01*
G01*
X115537000Y-105302500D01*
G75*
G02*
X115299500Y-105540000I-237500J0D01*
G01*
G37*
%TD*%
D10*
%TO.C,D6*%
X113538000Y-69788000D03*
X113538000Y-68388000D03*
%TD*%
D11*
%TO.C,D5*%
X112776000Y-99017000D03*
X112776000Y-96817000D03*
%TD*%
%TO.C,D4*%
X108712000Y-92753000D03*
X108712000Y-94953000D03*
%TD*%
%TO.C,D3*%
X108501000Y-74295000D03*
X110701000Y-74295000D03*
%TD*%
%TO.C,D2*%
X108501000Y-71755000D03*
X110701000Y-71755000D03*
%TD*%
%TO.C,D1*%
X112776000Y-102954000D03*
X112776000Y-100754000D03*
%TD*%
M02*
