%TF.GenerationSoftware,KiCad,Pcbnew,(5.1.10-1-10_14)*%
%TF.CreationDate,2021-11-16T12:10:24+01:00*%
%TF.ProjectId,Atari Export,41746172-6920-4457-9870-6f72742e6b69,rev?*%
%TF.SameCoordinates,Original*%
%TF.FileFunction,Legend,Bot*%
%TF.FilePolarity,Positive*%
%FSLAX46Y46*%
G04 Gerber Fmt 4.6, Leading zero omitted, Abs format (unit mm)*
G04 Created by KiCad (PCBNEW (5.1.10-1-10_14)) date 2021-11-16 12:10:24*
%MOMM*%
%LPD*%
G01*
G04 APERTURE LIST*
%ADD10C,0.300000*%
%ADD11C,0.500000*%
%ADD12C,3.250000*%
%ADD13C,0.200000*%
G04 APERTURE END LIST*
D10*
X100178571Y-55928571D02*
X98678571Y-55928571D01*
X99178571Y-56642857D02*
X100178571Y-56642857D01*
X99321428Y-56642857D02*
X99250000Y-56714285D01*
X99178571Y-56857142D01*
X99178571Y-57071428D01*
X99250000Y-57214285D01*
X99392857Y-57285714D01*
X100178571Y-57285714D01*
X100107142Y-57928571D02*
X100178571Y-58071428D01*
X100178571Y-58357142D01*
X100107142Y-58500000D01*
X99964285Y-58571428D01*
X99892857Y-58571428D01*
X99750000Y-58500000D01*
X99678571Y-58357142D01*
X99678571Y-58142857D01*
X99607142Y-58000000D01*
X99464285Y-57928571D01*
X99392857Y-57928571D01*
X99250000Y-58000000D01*
X99178571Y-58142857D01*
X99178571Y-58357142D01*
X99250000Y-58500000D01*
X99178571Y-59214285D02*
X100678571Y-59214285D01*
X99250000Y-59214285D02*
X99178571Y-59357142D01*
X99178571Y-59642857D01*
X99250000Y-59785714D01*
X99321428Y-59857142D01*
X99464285Y-59928571D01*
X99892857Y-59928571D01*
X100035714Y-59857142D01*
X100107142Y-59785714D01*
X100178571Y-59642857D01*
X100178571Y-59357142D01*
X100107142Y-59214285D01*
X100178571Y-60571428D02*
X99178571Y-60571428D01*
X98678571Y-60571428D02*
X98750000Y-60500000D01*
X98821428Y-60571428D01*
X98750000Y-60642857D01*
X98678571Y-60571428D01*
X98821428Y-60571428D01*
X100178571Y-61285714D02*
X99178571Y-61285714D01*
X99464285Y-61285714D02*
X99321428Y-61357142D01*
X99250000Y-61428571D01*
X99178571Y-61571428D01*
X99178571Y-61714285D01*
X100107142Y-62785714D02*
X100178571Y-62642857D01*
X100178571Y-62357142D01*
X100107142Y-62214285D01*
X99964285Y-62142857D01*
X99392857Y-62142857D01*
X99250000Y-62214285D01*
X99178571Y-62357142D01*
X99178571Y-62642857D01*
X99250000Y-62785714D01*
X99392857Y-62857142D01*
X99535714Y-62857142D01*
X99678571Y-62142857D01*
X100178571Y-64142857D02*
X98678571Y-64142857D01*
X100107142Y-64142857D02*
X100178571Y-64000000D01*
X100178571Y-63714285D01*
X100107142Y-63571428D01*
X100035714Y-63500000D01*
X99892857Y-63428571D01*
X99464285Y-63428571D01*
X99321428Y-63500000D01*
X99250000Y-63571428D01*
X99178571Y-63714285D01*
X99178571Y-64000000D01*
X99250000Y-64142857D01*
X100178571Y-66000000D02*
X98678571Y-66000000D01*
X99250000Y-66000000D02*
X99178571Y-66142857D01*
X99178571Y-66428571D01*
X99250000Y-66571428D01*
X99321428Y-66642857D01*
X99464285Y-66714285D01*
X99892857Y-66714285D01*
X100035714Y-66642857D01*
X100107142Y-66571428D01*
X100178571Y-66428571D01*
X100178571Y-66142857D01*
X100107142Y-66000000D01*
X99178571Y-67214285D02*
X100178571Y-67571428D01*
X99178571Y-67928571D02*
X100178571Y-67571428D01*
X100535714Y-67428571D01*
X100607142Y-67357142D01*
X100678571Y-67214285D01*
X98678571Y-69428571D02*
X98678571Y-70285714D01*
X100178571Y-69857142D02*
X98678571Y-69857142D01*
X100107142Y-71357142D02*
X100178571Y-71214285D01*
X100178571Y-70928571D01*
X100107142Y-70785714D01*
X99964285Y-70714285D01*
X99392857Y-70714285D01*
X99250000Y-70785714D01*
X99178571Y-70928571D01*
X99178571Y-71214285D01*
X99250000Y-71357142D01*
X99392857Y-71428571D01*
X99535714Y-71428571D01*
X99678571Y-70714285D01*
X100178571Y-72285714D02*
X100107142Y-72142857D01*
X99964285Y-72071428D01*
X98678571Y-72071428D01*
X100178571Y-73071428D02*
X100107142Y-72928571D01*
X99964285Y-72857142D01*
X98678571Y-72857142D01*
X99178571Y-74285714D02*
X100178571Y-74285714D01*
X99178571Y-73642857D02*
X99964285Y-73642857D01*
X100107142Y-73714285D01*
X100178571Y-73857142D01*
X100178571Y-74071428D01*
X100107142Y-74214285D01*
X100035714Y-74285714D01*
X98678571Y-74785714D02*
X98678571Y-75642857D01*
X100178571Y-75214285D02*
X98678571Y-75214285D01*
X100178571Y-76357142D02*
X100107142Y-76214285D01*
X100035714Y-76142857D01*
X99892857Y-76071428D01*
X99464285Y-76071428D01*
X99321428Y-76142857D01*
X99250000Y-76214285D01*
X99178571Y-76357142D01*
X99178571Y-76571428D01*
X99250000Y-76714285D01*
X99321428Y-76785714D01*
X99464285Y-76857142D01*
X99892857Y-76857142D01*
X100035714Y-76785714D01*
X100107142Y-76714285D01*
X100178571Y-76571428D01*
X100178571Y-76357142D01*
X99178571Y-77500000D02*
X100178571Y-77500000D01*
X99321428Y-77500000D02*
X99250000Y-77571428D01*
X99178571Y-77714285D01*
X99178571Y-77928571D01*
X99250000Y-78071428D01*
X99392857Y-78142857D01*
X100178571Y-78142857D01*
X100107142Y-79428571D02*
X100178571Y-79285714D01*
X100178571Y-79000000D01*
X100107142Y-78857142D01*
X99964285Y-78785714D01*
X99392857Y-78785714D01*
X99250000Y-78857142D01*
X99178571Y-79000000D01*
X99178571Y-79285714D01*
X99250000Y-79428571D01*
X99392857Y-79500000D01*
X99535714Y-79500000D01*
X99678571Y-78785714D01*
X100178571Y-81285714D02*
X98678571Y-81285714D01*
X99250000Y-81285714D02*
X99178571Y-81428571D01*
X99178571Y-81714285D01*
X99250000Y-81857142D01*
X99321428Y-81928571D01*
X99464285Y-82000000D01*
X99892857Y-82000000D01*
X100035714Y-81928571D01*
X100107142Y-81857142D01*
X100178571Y-81714285D01*
X100178571Y-81428571D01*
X100107142Y-81285714D01*
X99178571Y-82500000D02*
X100178571Y-82857142D01*
X99178571Y-83214285D02*
X100178571Y-82857142D01*
X100535714Y-82714285D01*
X100607142Y-82642857D01*
X100678571Y-82500000D01*
X99392857Y-85428571D02*
X99464285Y-85642857D01*
X99535714Y-85714285D01*
X99678571Y-85785714D01*
X99892857Y-85785714D01*
X100035714Y-85714285D01*
X100107142Y-85642857D01*
X100178571Y-85500000D01*
X100178571Y-84928571D01*
X98678571Y-84928571D01*
X98678571Y-85428571D01*
X98750000Y-85571428D01*
X98821428Y-85642857D01*
X98964285Y-85714285D01*
X99107142Y-85714285D01*
X99250000Y-85642857D01*
X99321428Y-85571428D01*
X99392857Y-85428571D01*
X99392857Y-84928571D01*
X99178571Y-86428571D02*
X100464285Y-86428571D01*
X100607142Y-86357142D01*
X100678571Y-86214285D01*
X100678571Y-86142857D01*
X98678571Y-86428571D02*
X98750000Y-86357142D01*
X98821428Y-86428571D01*
X98750000Y-86500000D01*
X98678571Y-86428571D01*
X98821428Y-86428571D01*
X100178571Y-87357142D02*
X100107142Y-87214285D01*
X100035714Y-87142857D01*
X99892857Y-87071428D01*
X99464285Y-87071428D01*
X99321428Y-87142857D01*
X99250000Y-87214285D01*
X99178571Y-87357142D01*
X99178571Y-87571428D01*
X99250000Y-87714285D01*
X99321428Y-87785714D01*
X99464285Y-87857142D01*
X99892857Y-87857142D01*
X100035714Y-87785714D01*
X100107142Y-87714285D01*
X100178571Y-87571428D01*
X100178571Y-87357142D01*
X98678571Y-87214285D02*
X98750000Y-87285714D01*
X98821428Y-87214285D01*
X98750000Y-87142857D01*
X98678571Y-87214285D01*
X98821428Y-87214285D01*
X98678571Y-87785714D02*
X98750000Y-87857142D01*
X98821428Y-87785714D01*
X98750000Y-87714285D01*
X98678571Y-87785714D01*
X98821428Y-87785714D01*
X100178571Y-88500000D02*
X99178571Y-88500000D01*
X99464285Y-88500000D02*
X99321428Y-88571428D01*
X99250000Y-88642857D01*
X99178571Y-88785714D01*
X99178571Y-88928571D01*
X99178571Y-89428571D02*
X100178571Y-89428571D01*
X99321428Y-89428571D02*
X99250000Y-89500000D01*
X99178571Y-89642857D01*
X99178571Y-89857142D01*
X99250000Y-90000000D01*
X99392857Y-90071428D01*
X100178571Y-90071428D01*
X98678571Y-92357142D02*
X99750000Y-92357142D01*
X99964285Y-92285714D01*
X100107142Y-92142857D01*
X100178571Y-91928571D01*
X100178571Y-91785714D01*
X99178571Y-93714285D02*
X100178571Y-93714285D01*
X99178571Y-93071428D02*
X99964285Y-93071428D01*
X100107142Y-93142857D01*
X100178571Y-93285714D01*
X100178571Y-93500000D01*
X100107142Y-93642857D01*
X100035714Y-93714285D01*
X100178571Y-94642857D02*
X100107142Y-94500000D01*
X99964285Y-94428571D01*
X98678571Y-94428571D01*
X100178571Y-95214285D02*
X99178571Y-95214285D01*
X98678571Y-95214285D02*
X98750000Y-95142857D01*
X98821428Y-95214285D01*
X98750000Y-95285714D01*
X98678571Y-95214285D01*
X98821428Y-95214285D01*
X99178571Y-95928571D02*
X100178571Y-95928571D01*
X99321428Y-95928571D02*
X99250000Y-96000000D01*
X99178571Y-96142857D01*
X99178571Y-96357142D01*
X99250000Y-96500000D01*
X99392857Y-96571428D01*
X100178571Y-96571428D01*
D11*
X112809523Y-63000000D02*
X112904761Y-63285714D01*
X112904761Y-63761904D01*
X112809523Y-63952380D01*
X112714285Y-64047619D01*
X112523809Y-64142857D01*
X112333333Y-64142857D01*
X112142857Y-64047619D01*
X112047619Y-63952380D01*
X111952380Y-63761904D01*
X111857142Y-63380952D01*
X111761904Y-63190476D01*
X111666666Y-63095238D01*
X111476190Y-63000000D01*
X111285714Y-63000000D01*
X111095238Y-63095238D01*
X111000000Y-63190476D01*
X110904761Y-63380952D01*
X110904761Y-63857142D01*
X111000000Y-64142857D01*
X112904761Y-65000000D02*
X110904761Y-65000000D01*
X112333333Y-65666666D01*
X110904761Y-66333333D01*
X112904761Y-66333333D01*
X112904761Y-67285714D02*
X110904761Y-67285714D01*
X110904761Y-67761904D01*
X111000000Y-68047619D01*
X111190476Y-68238095D01*
X111380952Y-68333333D01*
X111761904Y-68428571D01*
X112047619Y-68428571D01*
X112428571Y-68333333D01*
X112619047Y-68238095D01*
X112809523Y-68047619D01*
X112904761Y-67761904D01*
X112904761Y-67285714D01*
X111857142Y-71476190D02*
X111952380Y-71761904D01*
X112047619Y-71857142D01*
X112238095Y-71952380D01*
X112523809Y-71952380D01*
X112714285Y-71857142D01*
X112809523Y-71761904D01*
X112904761Y-71571428D01*
X112904761Y-70809523D01*
X110904761Y-70809523D01*
X110904761Y-71476190D01*
X111000000Y-71666666D01*
X111095238Y-71761904D01*
X111285714Y-71857142D01*
X111476190Y-71857142D01*
X111666666Y-71761904D01*
X111761904Y-71666666D01*
X111857142Y-71476190D01*
X111857142Y-70809523D01*
X112904761Y-73095238D02*
X112809523Y-72904761D01*
X112714285Y-72809523D01*
X112523809Y-72714285D01*
X111952380Y-72714285D01*
X111761904Y-72809523D01*
X111666666Y-72904761D01*
X111571428Y-73095238D01*
X111571428Y-73380952D01*
X111666666Y-73571428D01*
X111761904Y-73666666D01*
X111952380Y-73761904D01*
X112523809Y-73761904D01*
X112714285Y-73666666D01*
X112809523Y-73571428D01*
X112904761Y-73380952D01*
X112904761Y-73095238D01*
X112904761Y-74904761D02*
X112809523Y-74714285D01*
X112714285Y-74619047D01*
X112523809Y-74523809D01*
X111952380Y-74523809D01*
X111761904Y-74619047D01*
X111666666Y-74714285D01*
X111571428Y-74904761D01*
X111571428Y-75190476D01*
X111666666Y-75380952D01*
X111761904Y-75476190D01*
X111952380Y-75571428D01*
X112523809Y-75571428D01*
X112714285Y-75476190D01*
X112809523Y-75380952D01*
X112904761Y-75190476D01*
X112904761Y-74904761D01*
X111571428Y-76142857D02*
X111571428Y-76904761D01*
X110904761Y-76428571D02*
X112619047Y-76428571D01*
X112809523Y-76523809D01*
X112904761Y-76714285D01*
X112904761Y-76904761D01*
X112904761Y-77857142D02*
X112809523Y-77666666D01*
X112619047Y-77571428D01*
X110904761Y-77571428D01*
X112809523Y-79380952D02*
X112904761Y-79190476D01*
X112904761Y-78809523D01*
X112809523Y-78619047D01*
X112619047Y-78523809D01*
X111857142Y-78523809D01*
X111666666Y-78619047D01*
X111571428Y-78809523D01*
X111571428Y-79190476D01*
X111666666Y-79380952D01*
X111857142Y-79476190D01*
X112047619Y-79476190D01*
X112238095Y-78523809D01*
X111571428Y-81190476D02*
X113190476Y-81190476D01*
X113380952Y-81095238D01*
X113476190Y-81000000D01*
X113571428Y-80809523D01*
X113571428Y-80523809D01*
X113476190Y-80333333D01*
X112809523Y-81190476D02*
X112904761Y-81000000D01*
X112904761Y-80619047D01*
X112809523Y-80428571D01*
X112714285Y-80333333D01*
X112523809Y-80238095D01*
X111952380Y-80238095D01*
X111761904Y-80333333D01*
X111666666Y-80428571D01*
X111571428Y-80619047D01*
X111571428Y-81000000D01*
X111666666Y-81190476D01*
X112809523Y-84428571D02*
X112904761Y-84238095D01*
X112904761Y-83857142D01*
X112809523Y-83666666D01*
X112619047Y-83571428D01*
X111857142Y-83571428D01*
X111666666Y-83666666D01*
X111571428Y-83857142D01*
X111571428Y-84238095D01*
X111666666Y-84428571D01*
X111857142Y-84523809D01*
X112047619Y-84523809D01*
X112238095Y-83571428D01*
X112904761Y-86238095D02*
X110904761Y-86238095D01*
X112809523Y-86238095D02*
X112904761Y-86047619D01*
X112904761Y-85666666D01*
X112809523Y-85476190D01*
X112714285Y-85380952D01*
X112523809Y-85285714D01*
X111952380Y-85285714D01*
X111761904Y-85380952D01*
X111666666Y-85476190D01*
X111571428Y-85666666D01*
X111571428Y-86047619D01*
X111666666Y-86238095D01*
X112904761Y-87190476D02*
X111571428Y-87190476D01*
X110904761Y-87190476D02*
X111000000Y-87095238D01*
X111095238Y-87190476D01*
X111000000Y-87285714D01*
X110904761Y-87190476D01*
X111095238Y-87190476D01*
X111571428Y-87857142D02*
X111571428Y-88619047D01*
X110904761Y-88142857D02*
X112619047Y-88142857D01*
X112809523Y-88238095D01*
X112904761Y-88428571D01*
X112904761Y-88619047D01*
X112904761Y-89285714D02*
X111571428Y-89285714D01*
X110904761Y-89285714D02*
X111000000Y-89190476D01*
X111095238Y-89285714D01*
X111000000Y-89380952D01*
X110904761Y-89285714D01*
X111095238Y-89285714D01*
X112904761Y-90523809D02*
X112809523Y-90333333D01*
X112714285Y-90238095D01*
X112523809Y-90142857D01*
X111952380Y-90142857D01*
X111761904Y-90238095D01*
X111666666Y-90333333D01*
X111571428Y-90523809D01*
X111571428Y-90809523D01*
X111666666Y-91000000D01*
X111761904Y-91095238D01*
X111952380Y-91190476D01*
X112523809Y-91190476D01*
X112714285Y-91095238D01*
X112809523Y-91000000D01*
X112904761Y-90809523D01*
X112904761Y-90523809D01*
X111571428Y-92047619D02*
X112904761Y-92047619D01*
X111761904Y-92047619D02*
X111666666Y-92142857D01*
X111571428Y-92333333D01*
X111571428Y-92619047D01*
X111666666Y-92809523D01*
X111857142Y-92904761D01*
X112904761Y-92904761D01*
D12*
X119000000Y-49452380D02*
X119000000Y-53785714D01*
X126333333Y-55642857D02*
X126333333Y-49452380D01*
X112333333Y-49452380D01*
X112333333Y-55642857D01*
X126333333Y-59976190D02*
X117000000Y-66785714D01*
X117000000Y-59976190D02*
X126333333Y-66785714D01*
X117000000Y-71738095D02*
X131000000Y-71738095D01*
X117666666Y-71738095D02*
X117000000Y-72976190D01*
X117000000Y-75452380D01*
X117666666Y-76690476D01*
X118333333Y-77309523D01*
X119666666Y-77928571D01*
X123666666Y-77928571D01*
X125000000Y-77309523D01*
X125666666Y-76690476D01*
X126333333Y-75452380D01*
X126333333Y-72976190D01*
X125666666Y-71738095D01*
X126333333Y-85357142D02*
X125666666Y-84119047D01*
X125000000Y-83500000D01*
X123666666Y-82880952D01*
X119666666Y-82880952D01*
X118333333Y-83500000D01*
X117666666Y-84119047D01*
X117000000Y-85357142D01*
X117000000Y-87214285D01*
X117666666Y-88452380D01*
X118333333Y-89071428D01*
X119666666Y-89690476D01*
X123666666Y-89690476D01*
X125000000Y-89071428D01*
X125666666Y-88452380D01*
X126333333Y-87214285D01*
X126333333Y-85357142D01*
X126333333Y-95261904D02*
X117000000Y-95261904D01*
X119666666Y-95261904D02*
X118333333Y-95880952D01*
X117666666Y-96500000D01*
X117000000Y-97738095D01*
X117000000Y-98976190D01*
X117000000Y-101452380D02*
X117000000Y-106404761D01*
X112333333Y-103309523D02*
X124333333Y-103309523D01*
X125666666Y-103928571D01*
X126333333Y-105166666D01*
X126333333Y-106404761D01*
D13*
X91535714Y-47071428D02*
X91607142Y-47000000D01*
X91678571Y-46785714D01*
X91678571Y-46642857D01*
X91607142Y-46428571D01*
X91464285Y-46285714D01*
X91321428Y-46214285D01*
X91035714Y-46142857D01*
X90821428Y-46142857D01*
X90535714Y-46214285D01*
X90392857Y-46285714D01*
X90250000Y-46428571D01*
X90178571Y-46642857D01*
X90178571Y-46785714D01*
X90250000Y-47000000D01*
X90321428Y-47071428D01*
X91107142Y-47714285D02*
X91107142Y-48857142D01*
X91678571Y-49785714D02*
X91607142Y-49642857D01*
X91464285Y-49571428D01*
X90178571Y-49571428D01*
X91678571Y-51000000D02*
X90892857Y-51000000D01*
X90750000Y-50928571D01*
X90678571Y-50785714D01*
X90678571Y-50500000D01*
X90750000Y-50357142D01*
X91607142Y-51000000D02*
X91678571Y-50857142D01*
X91678571Y-50500000D01*
X91607142Y-50357142D01*
X91464285Y-50285714D01*
X91321428Y-50285714D01*
X91178571Y-50357142D01*
X91107142Y-50500000D01*
X91107142Y-50857142D01*
X91035714Y-51000000D01*
X91678571Y-51714285D02*
X90178571Y-51714285D01*
X90750000Y-51714285D02*
X90678571Y-51857142D01*
X90678571Y-52142857D01*
X90750000Y-52285714D01*
X90821428Y-52357142D01*
X90964285Y-52428571D01*
X91392857Y-52428571D01*
X91535714Y-52357142D01*
X91607142Y-52285714D01*
X91678571Y-52142857D01*
X91678571Y-51857142D01*
X91607142Y-51714285D01*
X90892857Y-54214285D02*
X90892857Y-54714285D01*
X91678571Y-54928571D02*
X91678571Y-54214285D01*
X90178571Y-54214285D01*
X90178571Y-54928571D01*
X91678571Y-55428571D02*
X90678571Y-56214285D01*
X90678571Y-55428571D02*
X91678571Y-56214285D01*
X90678571Y-56785714D02*
X92178571Y-56785714D01*
X90750000Y-56785714D02*
X90678571Y-56928571D01*
X90678571Y-57214285D01*
X90750000Y-57357142D01*
X90821428Y-57428571D01*
X90964285Y-57500000D01*
X91392857Y-57500000D01*
X91535714Y-57428571D01*
X91607142Y-57357142D01*
X91678571Y-57214285D01*
X91678571Y-56928571D01*
X91607142Y-56785714D01*
X91678571Y-58357142D02*
X91607142Y-58214285D01*
X91535714Y-58142857D01*
X91392857Y-58071428D01*
X90964285Y-58071428D01*
X90821428Y-58142857D01*
X90750000Y-58214285D01*
X90678571Y-58357142D01*
X90678571Y-58571428D01*
X90750000Y-58714285D01*
X90821428Y-58785714D01*
X90964285Y-58857142D01*
X91392857Y-58857142D01*
X91535714Y-58785714D01*
X91607142Y-58714285D01*
X91678571Y-58571428D01*
X91678571Y-58357142D01*
X91678571Y-59500000D02*
X90678571Y-59500000D01*
X90964285Y-59500000D02*
X90821428Y-59571428D01*
X90750000Y-59642857D01*
X90678571Y-59785714D01*
X90678571Y-59928571D01*
X90678571Y-60214285D02*
X90678571Y-60785714D01*
X90178571Y-60428571D02*
X91464285Y-60428571D01*
X91607142Y-60500000D01*
X91678571Y-60642857D01*
X91678571Y-60785714D01*
X91535714Y-63285714D02*
X91607142Y-63214285D01*
X91678571Y-63000000D01*
X91678571Y-62857142D01*
X91607142Y-62642857D01*
X91464285Y-62500000D01*
X91321428Y-62428571D01*
X91035714Y-62357142D01*
X90821428Y-62357142D01*
X90535714Y-62428571D01*
X90392857Y-62500000D01*
X90250000Y-62642857D01*
X90178571Y-62857142D01*
X90178571Y-63000000D01*
X90250000Y-63214285D01*
X90321428Y-63285714D01*
X91678571Y-64142857D02*
X91607142Y-64000000D01*
X91535714Y-63928571D01*
X91392857Y-63857142D01*
X90964285Y-63857142D01*
X90821428Y-63928571D01*
X90750000Y-64000000D01*
X90678571Y-64142857D01*
X90678571Y-64357142D01*
X90750000Y-64500000D01*
X90821428Y-64571428D01*
X90964285Y-64642857D01*
X91392857Y-64642857D01*
X91535714Y-64571428D01*
X91607142Y-64500000D01*
X91678571Y-64357142D01*
X91678571Y-64142857D01*
X91678571Y-65285714D02*
X90678571Y-65285714D01*
X90821428Y-65285714D02*
X90750000Y-65357142D01*
X90678571Y-65500000D01*
X90678571Y-65714285D01*
X90750000Y-65857142D01*
X90892857Y-65928571D01*
X91678571Y-65928571D01*
X90892857Y-65928571D02*
X90750000Y-66000000D01*
X90678571Y-66142857D01*
X90678571Y-66357142D01*
X90750000Y-66500000D01*
X90892857Y-66571428D01*
X91678571Y-66571428D01*
X90678571Y-67285714D02*
X92178571Y-67285714D01*
X90750000Y-67285714D02*
X90678571Y-67428571D01*
X90678571Y-67714285D01*
X90750000Y-67857142D01*
X90821428Y-67928571D01*
X90964285Y-68000000D01*
X91392857Y-68000000D01*
X91535714Y-67928571D01*
X91607142Y-67857142D01*
X91678571Y-67714285D01*
X91678571Y-67428571D01*
X91607142Y-67285714D01*
X91678571Y-69285714D02*
X90892857Y-69285714D01*
X90750000Y-69214285D01*
X90678571Y-69071428D01*
X90678571Y-68785714D01*
X90750000Y-68642857D01*
X91607142Y-69285714D02*
X91678571Y-69142857D01*
X91678571Y-68785714D01*
X91607142Y-68642857D01*
X91464285Y-68571428D01*
X91321428Y-68571428D01*
X91178571Y-68642857D01*
X91107142Y-68785714D01*
X91107142Y-69142857D01*
X91035714Y-69285714D01*
X90678571Y-69785714D02*
X90678571Y-70357142D01*
X90178571Y-70000000D02*
X91464285Y-70000000D01*
X91607142Y-70071428D01*
X91678571Y-70214285D01*
X91678571Y-70357142D01*
X91678571Y-70857142D02*
X90678571Y-70857142D01*
X90178571Y-70857142D02*
X90250000Y-70785714D01*
X90321428Y-70857142D01*
X90250000Y-70928571D01*
X90178571Y-70857142D01*
X90321428Y-70857142D01*
X91678571Y-71571428D02*
X90178571Y-71571428D01*
X90750000Y-71571428D02*
X90678571Y-71714285D01*
X90678571Y-72000000D01*
X90750000Y-72142857D01*
X90821428Y-72214285D01*
X90964285Y-72285714D01*
X91392857Y-72285714D01*
X91535714Y-72214285D01*
X91607142Y-72142857D01*
X91678571Y-72000000D01*
X91678571Y-71714285D01*
X91607142Y-71571428D01*
X91678571Y-73142857D02*
X91607142Y-73000000D01*
X91464285Y-72928571D01*
X90178571Y-72928571D01*
X91607142Y-74285714D02*
X91678571Y-74142857D01*
X91678571Y-73857142D01*
X91607142Y-73714285D01*
X91464285Y-73642857D01*
X90892857Y-73642857D01*
X90750000Y-73714285D01*
X90678571Y-73857142D01*
X90678571Y-74142857D01*
X90750000Y-74285714D01*
X90892857Y-74357142D01*
X91035714Y-74357142D01*
X91178571Y-73642857D01*
X91607142Y-75071428D02*
X91678571Y-75071428D01*
X91821428Y-75000000D01*
X91892857Y-74928571D01*
X91250000Y-76785714D02*
X91250000Y-77500000D01*
X91678571Y-76642857D02*
X90178571Y-77142857D01*
X91678571Y-77642857D01*
X90678571Y-77928571D02*
X90678571Y-78500000D01*
X90178571Y-78142857D02*
X91464285Y-78142857D01*
X91607142Y-78214285D01*
X91678571Y-78357142D01*
X91678571Y-78500000D01*
X91678571Y-79642857D02*
X90892857Y-79642857D01*
X90750000Y-79571428D01*
X90678571Y-79428571D01*
X90678571Y-79142857D01*
X90750000Y-79000000D01*
X91607142Y-79642857D02*
X91678571Y-79500000D01*
X91678571Y-79142857D01*
X91607142Y-79000000D01*
X91464285Y-78928571D01*
X91321428Y-78928571D01*
X91178571Y-79000000D01*
X91107142Y-79142857D01*
X91107142Y-79500000D01*
X91035714Y-79642857D01*
X91678571Y-80357142D02*
X90678571Y-80357142D01*
X90964285Y-80357142D02*
X90821428Y-80428571D01*
X90750000Y-80500000D01*
X90678571Y-80642857D01*
X90678571Y-80785714D01*
X91678571Y-81285714D02*
X90678571Y-81285714D01*
X90178571Y-81285714D02*
X90250000Y-81214285D01*
X90321428Y-81285714D01*
X90250000Y-81357142D01*
X90178571Y-81285714D01*
X90321428Y-81285714D01*
X91607142Y-83071428D02*
X91678571Y-83285714D01*
X91678571Y-83642857D01*
X91607142Y-83785714D01*
X91535714Y-83857142D01*
X91392857Y-83928571D01*
X91250000Y-83928571D01*
X91107142Y-83857142D01*
X91035714Y-83785714D01*
X90964285Y-83642857D01*
X90892857Y-83357142D01*
X90821428Y-83214285D01*
X90750000Y-83142857D01*
X90607142Y-83071428D01*
X90464285Y-83071428D01*
X90321428Y-83142857D01*
X90250000Y-83214285D01*
X90178571Y-83357142D01*
X90178571Y-83714285D01*
X90250000Y-83928571D01*
X90178571Y-84357142D02*
X90178571Y-85214285D01*
X91678571Y-84785714D02*
X90178571Y-84785714D01*
X91607142Y-86785714D02*
X91678571Y-86928571D01*
X91678571Y-87214285D01*
X91607142Y-87357142D01*
X91464285Y-87428571D01*
X91392857Y-87428571D01*
X91250000Y-87357142D01*
X91178571Y-87214285D01*
X91178571Y-87000000D01*
X91107142Y-86857142D01*
X90964285Y-86785714D01*
X90892857Y-86785714D01*
X90750000Y-86857142D01*
X90678571Y-87000000D01*
X90678571Y-87214285D01*
X90750000Y-87357142D01*
X91607142Y-88642857D02*
X91678571Y-88500000D01*
X91678571Y-88214285D01*
X91607142Y-88071428D01*
X91464285Y-88000000D01*
X90892857Y-88000000D01*
X90750000Y-88071428D01*
X90678571Y-88214285D01*
X90678571Y-88500000D01*
X90750000Y-88642857D01*
X90892857Y-88714285D01*
X91035714Y-88714285D01*
X91178571Y-88000000D01*
X91678571Y-89357142D02*
X90678571Y-89357142D01*
X90964285Y-89357142D02*
X90821428Y-89428571D01*
X90750000Y-89500000D01*
X90678571Y-89642857D01*
X90678571Y-89785714D01*
X91678571Y-90285714D02*
X90678571Y-90285714D01*
X90178571Y-90285714D02*
X90250000Y-90214285D01*
X90321428Y-90285714D01*
X90250000Y-90357142D01*
X90178571Y-90285714D01*
X90321428Y-90285714D01*
X91678571Y-91642857D02*
X90892857Y-91642857D01*
X90750000Y-91571428D01*
X90678571Y-91428571D01*
X90678571Y-91142857D01*
X90750000Y-91000000D01*
X91607142Y-91642857D02*
X91678571Y-91500000D01*
X91678571Y-91142857D01*
X91607142Y-91000000D01*
X91464285Y-90928571D01*
X91321428Y-90928571D01*
X91178571Y-91000000D01*
X91107142Y-91142857D01*
X91107142Y-91500000D01*
X91035714Y-91642857D01*
X91678571Y-92571428D02*
X91607142Y-92428571D01*
X91464285Y-92357142D01*
X90178571Y-92357142D01*
X90678571Y-94285714D02*
X92178571Y-94285714D01*
X90750000Y-94285714D02*
X90678571Y-94428571D01*
X90678571Y-94714285D01*
X90750000Y-94857142D01*
X90821428Y-94928571D01*
X90964285Y-95000000D01*
X91392857Y-95000000D01*
X91535714Y-94928571D01*
X91607142Y-94857142D01*
X91678571Y-94714285D01*
X91678571Y-94428571D01*
X91607142Y-94285714D01*
X91678571Y-95857142D02*
X91607142Y-95714285D01*
X91535714Y-95642857D01*
X91392857Y-95571428D01*
X90964285Y-95571428D01*
X90821428Y-95642857D01*
X90750000Y-95714285D01*
X90678571Y-95857142D01*
X90678571Y-96071428D01*
X90750000Y-96214285D01*
X90821428Y-96285714D01*
X90964285Y-96357142D01*
X91392857Y-96357142D01*
X91535714Y-96285714D01*
X91607142Y-96214285D01*
X91678571Y-96071428D01*
X91678571Y-95857142D01*
X91678571Y-97000000D02*
X90678571Y-97000000D01*
X90964285Y-97000000D02*
X90821428Y-97071428D01*
X90750000Y-97142857D01*
X90678571Y-97285714D01*
X90678571Y-97428571D01*
X90678571Y-97714285D02*
X90678571Y-98285714D01*
X90178571Y-97928571D02*
X91464285Y-97928571D01*
X91607142Y-98000000D01*
X91678571Y-98142857D01*
X91678571Y-98285714D01*
X91678571Y-99928571D02*
X90678571Y-99928571D01*
X90821428Y-99928571D02*
X90750000Y-100000000D01*
X90678571Y-100142857D01*
X90678571Y-100357142D01*
X90750000Y-100500000D01*
X90892857Y-100571428D01*
X91678571Y-100571428D01*
X90892857Y-100571428D02*
X90750000Y-100642857D01*
X90678571Y-100785714D01*
X90678571Y-101000000D01*
X90750000Y-101142857D01*
X90892857Y-101214285D01*
X91678571Y-101214285D01*
X91678571Y-101928571D02*
X90678571Y-101928571D01*
X90178571Y-101928571D02*
X90250000Y-101857142D01*
X90321428Y-101928571D01*
X90250000Y-102000000D01*
X90178571Y-101928571D01*
X90321428Y-101928571D01*
X91678571Y-103285714D02*
X90178571Y-103285714D01*
X91607142Y-103285714D02*
X91678571Y-103142857D01*
X91678571Y-102857142D01*
X91607142Y-102714285D01*
X91535714Y-102642857D01*
X91392857Y-102571428D01*
X90964285Y-102571428D01*
X90821428Y-102642857D01*
X90750000Y-102714285D01*
X90678571Y-102857142D01*
X90678571Y-103142857D01*
X90750000Y-103285714D01*
X91678571Y-104000000D02*
X90678571Y-104000000D01*
X90178571Y-104000000D02*
X90250000Y-103928571D01*
X90321428Y-104000000D01*
X90250000Y-104071428D01*
X90178571Y-104000000D01*
X90321428Y-104000000D01*
X91678571Y-105714285D02*
X90678571Y-106500000D01*
X90678571Y-105714285D02*
X91678571Y-106500000D01*
X90178571Y-106928571D02*
X90178571Y-107857142D01*
X90750000Y-107357142D01*
X90750000Y-107571428D01*
X90821428Y-107714285D01*
X90892857Y-107785714D01*
X91035714Y-107857142D01*
X91392857Y-107857142D01*
X91535714Y-107785714D01*
X91607142Y-107714285D01*
X91678571Y-107571428D01*
X91678571Y-107142857D01*
X91607142Y-107000000D01*
X91535714Y-106928571D01*
D11*
X108809523Y-61666666D02*
X108904761Y-61857142D01*
X108904761Y-62238095D01*
X108809523Y-62428571D01*
X108619047Y-62523809D01*
X108523809Y-62523809D01*
X108333333Y-62428571D01*
X108238095Y-62238095D01*
X108238095Y-61952380D01*
X108142857Y-61761904D01*
X107952380Y-61666666D01*
X107857142Y-61666666D01*
X107666666Y-61761904D01*
X107571428Y-61952380D01*
X107571428Y-62238095D01*
X107666666Y-62428571D01*
X107571428Y-63190476D02*
X108904761Y-63666666D01*
X107571428Y-64142857D02*
X108904761Y-63666666D01*
X109380952Y-63476190D01*
X109476190Y-63380952D01*
X109571428Y-63190476D01*
X107571428Y-64904761D02*
X108904761Y-64904761D01*
X107761904Y-64904761D02*
X107666666Y-65000000D01*
X107571428Y-65190476D01*
X107571428Y-65476190D01*
X107666666Y-65666666D01*
X107857142Y-65761904D01*
X108904761Y-65761904D01*
X107571428Y-66428571D02*
X107571428Y-67190476D01*
X106904761Y-66714285D02*
X108619047Y-66714285D01*
X108809523Y-66809523D01*
X108904761Y-67000000D01*
X108904761Y-67190476D01*
X108904761Y-67857142D02*
X106904761Y-67857142D01*
X108904761Y-68714285D02*
X107857142Y-68714285D01*
X107666666Y-68619047D01*
X107571428Y-68428571D01*
X107571428Y-68142857D01*
X107666666Y-67952380D01*
X107761904Y-67857142D01*
X108714285Y-69666666D02*
X108809523Y-69761904D01*
X108904761Y-69666666D01*
X108809523Y-69571428D01*
X108714285Y-69666666D01*
X108904761Y-69666666D01*
X108809523Y-71380952D02*
X108904761Y-71190476D01*
X108904761Y-70809523D01*
X108809523Y-70619047D01*
X108619047Y-70523809D01*
X107857142Y-70523809D01*
X107666666Y-70619047D01*
X107571428Y-70809523D01*
X107571428Y-71190476D01*
X107666666Y-71380952D01*
X107857142Y-71476190D01*
X108047619Y-71476190D01*
X108238095Y-70523809D01*
X107571428Y-72142857D02*
X108904761Y-72523809D01*
X107952380Y-72904761D01*
X108904761Y-73285714D01*
X107571428Y-73666666D01*
X108904761Y-75285714D02*
X107857142Y-75285714D01*
X107666666Y-75190476D01*
X107571428Y-75000000D01*
X107571428Y-74619047D01*
X107666666Y-74428571D01*
X108809523Y-75285714D02*
X108904761Y-75095238D01*
X108904761Y-74619047D01*
X108809523Y-74428571D01*
X108619047Y-74333333D01*
X108428571Y-74333333D01*
X108238095Y-74428571D01*
X108142857Y-74619047D01*
X108142857Y-75095238D01*
X108047619Y-75285714D01*
X107571428Y-76238095D02*
X108904761Y-76238095D01*
X107761904Y-76238095D02*
X107666666Y-76333333D01*
X107571428Y-76523809D01*
X107571428Y-76809523D01*
X107666666Y-77000000D01*
X107857142Y-77095238D01*
X108904761Y-77095238D01*
X108809523Y-78904761D02*
X108904761Y-78714285D01*
X108904761Y-78333333D01*
X108809523Y-78142857D01*
X108714285Y-78047619D01*
X108523809Y-77952380D01*
X107952380Y-77952380D01*
X107761904Y-78047619D01*
X107666666Y-78142857D01*
X107571428Y-78333333D01*
X107571428Y-78714285D01*
X107666666Y-78904761D01*
X108904761Y-80047619D02*
X108809523Y-79857142D01*
X108714285Y-79761904D01*
X108523809Y-79666666D01*
X107952380Y-79666666D01*
X107761904Y-79761904D01*
X107666666Y-79857142D01*
X107571428Y-80047619D01*
X107571428Y-80333333D01*
X107666666Y-80523809D01*
X107761904Y-80619047D01*
X107952380Y-80714285D01*
X108523809Y-80714285D01*
X108714285Y-80619047D01*
X108809523Y-80523809D01*
X108904761Y-80333333D01*
X108904761Y-80047619D01*
X108904761Y-81857142D02*
X108809523Y-81666666D01*
X108619047Y-81571428D01*
X106904761Y-81571428D01*
X108809523Y-82523809D02*
X108904761Y-82714285D01*
X108904761Y-83095238D01*
X108809523Y-83285714D01*
X108619047Y-83380952D01*
X108523809Y-83380952D01*
X108333333Y-83285714D01*
X108238095Y-83095238D01*
X108238095Y-82809523D01*
X108142857Y-82619047D01*
X107952380Y-82523809D01*
X107857142Y-82523809D01*
X107666666Y-82619047D01*
X107571428Y-82809523D01*
X107571428Y-83095238D01*
X107666666Y-83285714D01*
X108809523Y-85000000D02*
X108904761Y-84809523D01*
X108904761Y-84428571D01*
X108809523Y-84238095D01*
X108619047Y-84142857D01*
X107857142Y-84142857D01*
X107666666Y-84238095D01*
X107571428Y-84428571D01*
X107571428Y-84809523D01*
X107666666Y-85000000D01*
X107857142Y-85095238D01*
X108047619Y-85095238D01*
X108238095Y-84142857D01*
X108904761Y-86238095D02*
X108809523Y-86047619D01*
X108619047Y-85952380D01*
X106904761Y-85952380D01*
X108904761Y-87285714D02*
X108809523Y-87095238D01*
X108619047Y-86999999D01*
X106904761Y-86999999D01*
X108714285Y-88047619D02*
X108809523Y-88142857D01*
X108904761Y-88047619D01*
X108809523Y-87952380D01*
X108714285Y-88047619D01*
X108904761Y-88047619D01*
X108809523Y-89857142D02*
X108904761Y-89666666D01*
X108904761Y-89285714D01*
X108809523Y-89095238D01*
X108714285Y-88999999D01*
X108523809Y-88904761D01*
X107952380Y-88904761D01*
X107761904Y-88999999D01*
X107666666Y-89095238D01*
X107571428Y-89285714D01*
X107571428Y-89666666D01*
X107666666Y-89857142D01*
X108904761Y-90999999D02*
X108809523Y-90809523D01*
X108714285Y-90714285D01*
X108523809Y-90619047D01*
X107952380Y-90619047D01*
X107761904Y-90714285D01*
X107666666Y-90809523D01*
X107571428Y-90999999D01*
X107571428Y-91285714D01*
X107666666Y-91476190D01*
X107761904Y-91571428D01*
X107952380Y-91666666D01*
X108523809Y-91666666D01*
X108714285Y-91571428D01*
X108809523Y-91476190D01*
X108904761Y-91285714D01*
X108904761Y-90999999D01*
X108904761Y-92523809D02*
X107571428Y-92523809D01*
X107761904Y-92523809D02*
X107666666Y-92619047D01*
X107571428Y-92809523D01*
X107571428Y-93095238D01*
X107666666Y-93285714D01*
X107857142Y-93380952D01*
X108904761Y-93380952D01*
X107857142Y-93380952D02*
X107666666Y-93476190D01*
X107571428Y-93666666D01*
X107571428Y-93952380D01*
X107666666Y-94142857D01*
X107857142Y-94238095D01*
X108904761Y-94238095D01*
M02*
