M48
; DRILL file {KiCad (5.1.10-1-10_14)} date Tuesday, November 16, 2021 at 12:10:20 PM
; FORMAT={-:-/ absolute / inch / decimal}
; #@! TF.CreationDate,2021-11-16T12:10:20+01:00
; #@! TF.GenerationSoftware,Kicad,Pcbnew,(5.1.10-1-10_14)
; #@! TF.FileFunction,Plated,1,2,PTH
FMAT,2
INCH
T1C0.0157
T2C0.0394
T3C0.0551
T4C0.1260
%
G90
G05
T1
X4.22Y-3.37
X4.22Y-3.42
X4.2208Y-3.6811
X4.2717Y-3.937
X4.2717Y-3.9764
X4.2738Y-3.5874
X4.29Y-2.24
X4.332Y-3.184
X4.366Y-3.266
X4.3898Y-3.937
X4.4094Y-3.7205
X4.41Y-3.68
X4.42Y-2.7
X4.44Y-4.09
X4.45Y-2.61
X4.462Y-4.011
T2
X3.7071Y-2.4171
X3.7071Y-2.5262
X3.7071Y-2.6352
X3.7071Y-2.7443
X3.7071Y-2.8533
X3.7071Y-2.9624
X3.7071Y-3.0715
X3.7071Y-3.1805
X3.7071Y-3.2896
X3.7071Y-3.3986
X3.7071Y-3.5077
X3.7071Y-3.6167
X3.8189Y-2.3626
X3.8189Y-2.4717
X3.8189Y-2.5807
X3.8189Y-2.6898
X3.8189Y-2.7988
X3.8189Y-2.9079
X3.8189Y-3.0169
X3.8189Y-3.126
X3.8189Y-3.235
X3.8189Y-3.3441
X3.8189Y-3.4531
X3.8189Y-3.5622
X3.8189Y-3.6713
X4.038Y-2.384
X4.038Y-2.484
X4.038Y-2.584
X4.038Y-2.684
X4.038Y-2.784
X4.038Y-2.884
X4.038Y-2.984
X4.038Y-3.084
X4.038Y-3.184
X4.038Y-3.284
X4.038Y-3.384
X4.038Y-3.484
X4.038Y-3.584
X4.138Y-2.384
X4.138Y-2.484
X4.138Y-2.584
X4.138Y-2.684
X4.138Y-2.784
X4.138Y-2.884
X4.138Y-2.984
X4.138Y-3.084
X4.138Y-3.184
X4.138Y-3.284
X4.138Y-3.384
X4.138Y-3.484
X4.138Y-3.584
T3
X4.6208Y-3.678
X4.6208Y-4.072
X4.6247Y-1.978
X4.6247Y-2.372
X4.6247Y-2.828
X4.6247Y-3.222
X4.7188Y-3.5795
X4.7188Y-3.875
X4.7188Y-4.1705
X4.7228Y-1.8795
X4.7228Y-2.175
X4.7228Y-2.4705
X4.7228Y-2.7295
X4.7228Y-3.025
X4.7228Y-3.3205
X5.1129Y-3.7766
X5.1129Y-3.9734
X5.1169Y-2.0766
X5.1169Y-2.2734
X5.1169Y-2.9266
X5.1169Y-3.1234
T4
X3.8071Y-2.0898
X3.8071Y-3.9441
T0
M30
