%TF.GenerationSoftware,KiCad,Pcbnew,(5.1.10-1-10_14)*%
%TF.CreationDate,2021-11-16T12:10:24+01:00*%
%TF.ProjectId,Atari Export,41746172-6920-4457-9870-6f72742e6b69,rev?*%
%TF.SameCoordinates,Original*%
%TF.FileFunction,Copper,L1,Top*%
%TF.FilePolarity,Positive*%
%FSLAX46Y46*%
G04 Gerber Fmt 4.6, Leading zero omitted, Abs format (unit mm)*
G04 Created by KiCad (PCBNEW (5.1.10-1-10_14)) date 2021-11-16 12:10:24*
%MOMM*%
%LPD*%
G01*
G04 APERTURE LIST*
%TA.AperFunction,ComponentPad*%
%ADD10C,4.000000*%
%TD*%
%TA.AperFunction,ComponentPad*%
%ADD11C,1.600000*%
%TD*%
%TA.AperFunction,ComponentPad*%
%ADD12R,1.600000X1.600000*%
%TD*%
%TA.AperFunction,ComponentPad*%
%ADD13O,1.700000X1.700000*%
%TD*%
%TA.AperFunction,ComponentPad*%
%ADD14R,1.700000X1.700000*%
%TD*%
%TA.AperFunction,ComponentPad*%
%ADD15C,2.100000*%
%TD*%
%TA.AperFunction,ComponentPad*%
%ADD16R,2.100000X2.100000*%
%TD*%
%TA.AperFunction,SMDPad,CuDef*%
%ADD17R,0.700000X0.600000*%
%TD*%
%TA.AperFunction,SMDPad,CuDef*%
%ADD18R,0.500000X0.500000*%
%TD*%
%TA.AperFunction,ViaPad*%
%ADD19C,0.800000*%
%TD*%
%TA.AperFunction,Conductor*%
%ADD20C,0.381000*%
%TD*%
%TA.AperFunction,Conductor*%
%ADD21C,0.635000*%
%TD*%
G04 APERTURE END LIST*
%TO.P,C2,2*%
%TO.N,GND*%
%TA.AperFunction,SMDPad,CuDef*%
G36*
G01*
X110702000Y-53782000D02*
X111802000Y-53782000D01*
G75*
G02*
X112052000Y-54032000I0J-250000D01*
G01*
X112052000Y-57032000D01*
G75*
G02*
X111802000Y-57282000I-250000J0D01*
G01*
X110702000Y-57282000D01*
G75*
G02*
X110452000Y-57032000I0J250000D01*
G01*
X110452000Y-54032000D01*
G75*
G02*
X110702000Y-53782000I250000J0D01*
G01*
G37*
%TD.AperFunction*%
%TO.P,C2,1*%
%TO.N,VCC*%
%TA.AperFunction,SMDPad,CuDef*%
G36*
G01*
X110702000Y-48382000D02*
X111802000Y-48382000D01*
G75*
G02*
X112052000Y-48632000I0J-250000D01*
G01*
X112052000Y-51632000D01*
G75*
G02*
X111802000Y-51882000I-250000J0D01*
G01*
X110702000Y-51882000D01*
G75*
G02*
X110452000Y-51632000I0J250000D01*
G01*
X110452000Y-48632000D01*
G75*
G02*
X110702000Y-48382000I250000J0D01*
G01*
G37*
%TD.AperFunction*%
%TD*%
%TO.P,C1,2*%
%TO.N,GND*%
%TA.AperFunction,SMDPad,CuDef*%
G36*
G01*
X110702000Y-64704000D02*
X111802000Y-64704000D01*
G75*
G02*
X112052000Y-64954000I0J-250000D01*
G01*
X112052000Y-67954000D01*
G75*
G02*
X111802000Y-68204000I-250000J0D01*
G01*
X110702000Y-68204000D01*
G75*
G02*
X110452000Y-67954000I0J250000D01*
G01*
X110452000Y-64954000D01*
G75*
G02*
X110702000Y-64704000I250000J0D01*
G01*
G37*
%TD.AperFunction*%
%TO.P,C1,1*%
%TO.N,Net-(C1-Pad1)*%
%TA.AperFunction,SMDPad,CuDef*%
G36*
G01*
X110702000Y-59304000D02*
X111802000Y-59304000D01*
G75*
G02*
X112052000Y-59554000I0J-250000D01*
G01*
X112052000Y-62554000D01*
G75*
G02*
X111802000Y-62804000I-250000J0D01*
G01*
X110702000Y-62804000D01*
G75*
G02*
X110452000Y-62554000I0J250000D01*
G01*
X110452000Y-59554000D01*
G75*
G02*
X110702000Y-59304000I250000J0D01*
G01*
G37*
%TD.AperFunction*%
%TD*%
D10*
%TO.P,J1,0*%
%TO.N,N/C*%
X96700000Y-100180000D03*
X96700000Y-53080000D03*
D11*
%TO.P,J1,25*%
%TO.N,Net-(J1-Pad25)*%
X94160000Y-61395000D03*
%TO.P,J1,24*%
%TO.N,Net-(J1-Pad24)*%
X94160000Y-64165000D03*
%TO.P,J1,23*%
%TO.N,Net-(J1-Pad23)*%
X94160000Y-66935000D03*
%TO.P,J1,22*%
%TO.N,Net-(J1-Pad22)*%
X94160000Y-69705000D03*
%TO.P,J1,21*%
%TO.N,Net-(J1-Pad21)*%
X94160000Y-72475000D03*
%TO.P,J1,20*%
%TO.N,Net-(D3-Pad2)*%
X94160000Y-75245000D03*
%TO.P,J1,19*%
%TO.N,Net-(J1-Pad19)*%
X94160000Y-78015000D03*
%TO.P,J1,18*%
%TO.N,Net-(J1-Pad18)*%
X94160000Y-80785000D03*
%TO.P,J1,17*%
%TO.N,Net-(J1-Pad17)*%
X94160000Y-83555000D03*
%TO.P,J1,16*%
%TO.N,Net-(J1-Pad16)*%
X94160000Y-86325000D03*
%TO.P,J1,15*%
%TO.N,Net-(J1-Pad15)*%
X94160000Y-89095000D03*
%TO.P,J1,14*%
%TO.N,Net-(J1-Pad14)*%
X94160000Y-91865000D03*
%TO.P,J1,13*%
%TO.N,Net-(J1-Pad13)*%
X97000000Y-60010000D03*
%TO.P,J1,12*%
%TO.N,Net-(J1-Pad12)*%
X97000000Y-62780000D03*
%TO.P,J1,11*%
%TO.N,Net-(J1-Pad11)*%
X97000000Y-65550000D03*
%TO.P,J1,10*%
%TO.N,Net-(J1-Pad10)*%
X97000000Y-68320000D03*
%TO.P,J1,9*%
%TO.N,Net-(J1-Pad9)*%
X97000000Y-71090000D03*
%TO.P,J1,8*%
%TO.N,Net-(D2-Pad2)*%
X97000000Y-73860000D03*
%TO.P,J1,7*%
%TO.N,GND*%
X97000000Y-76630000D03*
%TO.P,J1,6*%
%TO.N,Net-(D3-Pad2)*%
X97000000Y-79400000D03*
%TO.P,J1,5*%
%TO.N,Net-(J1-Pad5)*%
X97000000Y-82170000D03*
%TO.P,J1,4*%
%TO.N,Net-(D2-Pad2)*%
X97000000Y-84940000D03*
%TO.P,J1,3*%
%TO.N,Net-(J1-Pad3)*%
X97000000Y-87710000D03*
%TO.P,J1,2*%
%TO.N,Net-(J1-Pad2)*%
X97000000Y-90480000D03*
D12*
%TO.P,J1,1*%
%TO.N,Net-(J1-Pad1)*%
X97000000Y-93250000D03*
%TD*%
D13*
%TO.P,J5,26*%
%TO.N,N/C*%
X105105200Y-91033600D03*
%TO.P,J5,25*%
%TO.N,Net-(J1-Pad1)*%
X102565200Y-91033600D03*
%TO.P,J5,24*%
%TO.N,Net-(J1-Pad14)*%
X105105200Y-88493600D03*
%TO.P,J5,23*%
%TO.N,Net-(J1-Pad2)*%
X102565200Y-88493600D03*
%TO.P,J5,22*%
%TO.N,Net-(J1-Pad15)*%
X105105200Y-85953600D03*
%TO.P,J5,21*%
%TO.N,Net-(J1-Pad3)*%
X102565200Y-85953600D03*
%TO.P,J5,20*%
%TO.N,Net-(J1-Pad16)*%
X105105200Y-83413600D03*
%TO.P,J5,19*%
%TO.N,Net-(D2-Pad2)*%
X102565200Y-83413600D03*
%TO.P,J5,18*%
%TO.N,Net-(J1-Pad17)*%
X105105200Y-80873600D03*
%TO.P,J5,17*%
%TO.N,Net-(J1-Pad5)*%
X102565200Y-80873600D03*
%TO.P,J5,16*%
%TO.N,Net-(J1-Pad18)*%
X105105200Y-78333600D03*
%TO.P,J5,15*%
%TO.N,Net-(D3-Pad2)*%
X102565200Y-78333600D03*
%TO.P,J5,14*%
%TO.N,Net-(J1-Pad19)*%
X105105200Y-75793600D03*
%TO.P,J5,13*%
%TO.N,GND*%
X102565200Y-75793600D03*
%TO.P,J5,12*%
%TO.N,Net-(D3-Pad2)*%
X105105200Y-73253600D03*
%TO.P,J5,11*%
%TO.N,Net-(D2-Pad2)*%
X102565200Y-73253600D03*
%TO.P,J5,10*%
%TO.N,Net-(J1-Pad21)*%
X105105200Y-70713600D03*
%TO.P,J5,9*%
%TO.N,Net-(J1-Pad9)*%
X102565200Y-70713600D03*
%TO.P,J5,8*%
%TO.N,Net-(J1-Pad22)*%
X105105200Y-68173600D03*
%TO.P,J5,7*%
%TO.N,Net-(J1-Pad10)*%
X102565200Y-68173600D03*
%TO.P,J5,6*%
%TO.N,Net-(J1-Pad23)*%
X105105200Y-65633600D03*
%TO.P,J5,5*%
%TO.N,Net-(J1-Pad11)*%
X102565200Y-65633600D03*
%TO.P,J5,4*%
%TO.N,Net-(J1-Pad24)*%
X105105200Y-63093600D03*
%TO.P,J5,3*%
%TO.N,Net-(J1-Pad12)*%
X102565200Y-63093600D03*
%TO.P,J5,2*%
%TO.N,Net-(J1-Pad25)*%
X105105200Y-60553600D03*
D14*
%TO.P,J5,1*%
%TO.N,Net-(J1-Pad13)*%
X102565200Y-60553600D03*
%TD*%
%TO.P,R9,2*%
%TO.N,Net-(D1-Pad1)*%
%TA.AperFunction,SMDPad,CuDef*%
G36*
G01*
X110125500Y-102152000D02*
X110600500Y-102152000D01*
G75*
G02*
X110838000Y-102389500I0J-237500D01*
G01*
X110838000Y-102889500D01*
G75*
G02*
X110600500Y-103127000I-237500J0D01*
G01*
X110125500Y-103127000D01*
G75*
G02*
X109888000Y-102889500I0J237500D01*
G01*
X109888000Y-102389500D01*
G75*
G02*
X110125500Y-102152000I237500J0D01*
G01*
G37*
%TD.AperFunction*%
%TO.P,R9,1*%
%TO.N,GND*%
%TA.AperFunction,SMDPad,CuDef*%
G36*
G01*
X110125500Y-100327000D02*
X110600500Y-100327000D01*
G75*
G02*
X110838000Y-100564500I0J-237500D01*
G01*
X110838000Y-101064500D01*
G75*
G02*
X110600500Y-101302000I-237500J0D01*
G01*
X110125500Y-101302000D01*
G75*
G02*
X109888000Y-101064500I0J237500D01*
G01*
X109888000Y-100564500D01*
G75*
G02*
X110125500Y-100327000I237500J0D01*
G01*
G37*
%TD.AperFunction*%
%TD*%
%TO.P,R5,2*%
%TO.N,Net-(D5-Pad1)*%
%TA.AperFunction,SMDPad,CuDef*%
G36*
G01*
X110600500Y-97365000D02*
X110125500Y-97365000D01*
G75*
G02*
X109888000Y-97127500I0J237500D01*
G01*
X109888000Y-96627500D01*
G75*
G02*
X110125500Y-96390000I237500J0D01*
G01*
X110600500Y-96390000D01*
G75*
G02*
X110838000Y-96627500I0J-237500D01*
G01*
X110838000Y-97127500D01*
G75*
G02*
X110600500Y-97365000I-237500J0D01*
G01*
G37*
%TD.AperFunction*%
%TO.P,R5,1*%
%TO.N,GND*%
%TA.AperFunction,SMDPad,CuDef*%
G36*
G01*
X110600500Y-99190000D02*
X110125500Y-99190000D01*
G75*
G02*
X109888000Y-98952500I0J237500D01*
G01*
X109888000Y-98452500D01*
G75*
G02*
X110125500Y-98215000I237500J0D01*
G01*
X110600500Y-98215000D01*
G75*
G02*
X110838000Y-98452500I0J-237500D01*
G01*
X110838000Y-98952500D01*
G75*
G02*
X110600500Y-99190000I-237500J0D01*
G01*
G37*
%TD.AperFunction*%
%TD*%
%TO.P,R4,2*%
%TO.N,Net-(D4-Pad1)*%
%TA.AperFunction,SMDPad,CuDef*%
G36*
G01*
X110252500Y-94151000D02*
X110727500Y-94151000D01*
G75*
G02*
X110965000Y-94388500I0J-237500D01*
G01*
X110965000Y-94888500D01*
G75*
G02*
X110727500Y-95126000I-237500J0D01*
G01*
X110252500Y-95126000D01*
G75*
G02*
X110015000Y-94888500I0J237500D01*
G01*
X110015000Y-94388500D01*
G75*
G02*
X110252500Y-94151000I237500J0D01*
G01*
G37*
%TD.AperFunction*%
%TO.P,R4,1*%
%TO.N,GND*%
%TA.AperFunction,SMDPad,CuDef*%
G36*
G01*
X110252500Y-92326000D02*
X110727500Y-92326000D01*
G75*
G02*
X110965000Y-92563500I0J-237500D01*
G01*
X110965000Y-93063500D01*
G75*
G02*
X110727500Y-93301000I-237500J0D01*
G01*
X110252500Y-93301000D01*
G75*
G02*
X110015000Y-93063500I0J237500D01*
G01*
X110015000Y-92563500D01*
G75*
G02*
X110252500Y-92326000I237500J0D01*
G01*
G37*
%TD.AperFunction*%
%TD*%
%TO.P,R6,2*%
%TO.N,Net-(D2-Pad2)*%
%TA.AperFunction,SMDPad,CuDef*%
G36*
G01*
X109176000Y-76470500D02*
X109176000Y-76945500D01*
G75*
G02*
X108938500Y-77183000I-237500J0D01*
G01*
X108438500Y-77183000D01*
G75*
G02*
X108201000Y-76945500I0J237500D01*
G01*
X108201000Y-76470500D01*
G75*
G02*
X108438500Y-76233000I237500J0D01*
G01*
X108938500Y-76233000D01*
G75*
G02*
X109176000Y-76470500I0J-237500D01*
G01*
G37*
%TD.AperFunction*%
%TO.P,R6,1*%
%TO.N,Net-(D1-Pad1)*%
%TA.AperFunction,SMDPad,CuDef*%
G36*
G01*
X111001000Y-76470500D02*
X111001000Y-76945500D01*
G75*
G02*
X110763500Y-77183000I-237500J0D01*
G01*
X110263500Y-77183000D01*
G75*
G02*
X110026000Y-76945500I0J237500D01*
G01*
X110026000Y-76470500D01*
G75*
G02*
X110263500Y-76233000I237500J0D01*
G01*
X110763500Y-76233000D01*
G75*
G02*
X111001000Y-76470500I0J-237500D01*
G01*
G37*
%TD.AperFunction*%
%TD*%
D15*
%TO.P,J3,G1*%
%TO.N,N/C*%
X129968000Y-79335000D03*
%TO.P,J3,G2*%
X129968000Y-74335000D03*
%TO.P,J3,3*%
%TO.N,Net-(J3-Pad3)*%
X119958000Y-76835000D03*
%TO.P,J3,5*%
%TO.N,Net-(J3-Pad5)*%
X119958000Y-84340000D03*
D16*
%TO.P,J3,1*%
%TO.N,Net-(J3-Pad1)*%
X119958000Y-69330000D03*
D15*
%TO.P,J3,4*%
%TO.N,Net-(J3-Pad4)*%
X117468000Y-81840000D03*
%TO.P,J3,2*%
%TO.N,GND*%
X117468000Y-71830000D03*
%TD*%
%TO.P,J2,G1*%
%TO.N,N/C*%
X129968000Y-57745000D03*
%TO.P,J2,G2*%
X129968000Y-52745000D03*
%TO.P,J2,3*%
%TO.N,Net-(J2-Pad3)*%
X119958000Y-55245000D03*
%TO.P,J2,5*%
%TO.N,Net-(J2-Pad5)*%
X119958000Y-62750000D03*
D16*
%TO.P,J2,1*%
%TO.N,Net-(J2-Pad1)*%
X119958000Y-47740000D03*
D15*
%TO.P,J2,4*%
%TO.N,Net-(J2-Pad4)*%
X117468000Y-60250000D03*
%TO.P,J2,2*%
%TO.N,GND*%
X117468000Y-50240000D03*
%TD*%
%TO.P,J4,G1*%
%TO.N,N/C*%
X129867500Y-100925000D03*
%TO.P,J4,G2*%
X129867500Y-95925000D03*
%TO.P,J4,3*%
%TO.N,Net-(J4-Pad3)*%
X119857500Y-98425000D03*
%TO.P,J4,5*%
%TO.N,Net-(J4-Pad5)*%
X119857500Y-105930000D03*
D16*
%TO.P,J4,1*%
%TO.N,Net-(J4-Pad1)*%
X119857500Y-90920000D03*
D15*
%TO.P,J4,4*%
%TO.N,Net-(J4-Pad4)*%
X117367500Y-103430000D03*
%TO.P,J4,2*%
%TO.N,GND*%
X117367500Y-93420000D03*
%TD*%
%TO.P,U1,16*%
%TO.N,VCC*%
%TA.AperFunction,SMDPad,CuDef*%
G36*
G01*
X112752000Y-81811000D02*
X112752000Y-81511000D01*
G75*
G02*
X112902000Y-81361000I150000J0D01*
G01*
X114552000Y-81361000D01*
G75*
G02*
X114702000Y-81511000I0J-150000D01*
G01*
X114702000Y-81811000D01*
G75*
G02*
X114552000Y-81961000I-150000J0D01*
G01*
X112902000Y-81961000D01*
G75*
G02*
X112752000Y-81811000I0J150000D01*
G01*
G37*
%TD.AperFunction*%
%TO.P,U1,15*%
%TO.N,Net-(U1-Pad15)*%
%TA.AperFunction,SMDPad,CuDef*%
G36*
G01*
X112752000Y-83081000D02*
X112752000Y-82781000D01*
G75*
G02*
X112902000Y-82631000I150000J0D01*
G01*
X114552000Y-82631000D01*
G75*
G02*
X114702000Y-82781000I0J-150000D01*
G01*
X114702000Y-83081000D01*
G75*
G02*
X114552000Y-83231000I-150000J0D01*
G01*
X112902000Y-83231000D01*
G75*
G02*
X112752000Y-83081000I0J150000D01*
G01*
G37*
%TD.AperFunction*%
%TO.P,U1,14*%
%TO.N,Net-(U1-Pad14)*%
%TA.AperFunction,SMDPad,CuDef*%
G36*
G01*
X112752000Y-84351000D02*
X112752000Y-84051000D01*
G75*
G02*
X112902000Y-83901000I150000J0D01*
G01*
X114552000Y-83901000D01*
G75*
G02*
X114702000Y-84051000I0J-150000D01*
G01*
X114702000Y-84351000D01*
G75*
G02*
X114552000Y-84501000I-150000J0D01*
G01*
X112902000Y-84501000D01*
G75*
G02*
X112752000Y-84351000I0J150000D01*
G01*
G37*
%TD.AperFunction*%
%TO.P,U1,13*%
%TO.N,Net-(U1-Pad13)*%
%TA.AperFunction,SMDPad,CuDef*%
G36*
G01*
X112752000Y-85621000D02*
X112752000Y-85321000D01*
G75*
G02*
X112902000Y-85171000I150000J0D01*
G01*
X114552000Y-85171000D01*
G75*
G02*
X114702000Y-85321000I0J-150000D01*
G01*
X114702000Y-85621000D01*
G75*
G02*
X114552000Y-85771000I-150000J0D01*
G01*
X112902000Y-85771000D01*
G75*
G02*
X112752000Y-85621000I0J150000D01*
G01*
G37*
%TD.AperFunction*%
%TO.P,U1,12*%
%TO.N,Net-(U1-Pad12)*%
%TA.AperFunction,SMDPad,CuDef*%
G36*
G01*
X112752000Y-86891000D02*
X112752000Y-86591000D01*
G75*
G02*
X112902000Y-86441000I150000J0D01*
G01*
X114552000Y-86441000D01*
G75*
G02*
X114702000Y-86591000I0J-150000D01*
G01*
X114702000Y-86891000D01*
G75*
G02*
X114552000Y-87041000I-150000J0D01*
G01*
X112902000Y-87041000D01*
G75*
G02*
X112752000Y-86891000I0J150000D01*
G01*
G37*
%TD.AperFunction*%
%TO.P,U1,11*%
%TO.N,Net-(U1-Pad11)*%
%TA.AperFunction,SMDPad,CuDef*%
G36*
G01*
X112752000Y-88161000D02*
X112752000Y-87861000D01*
G75*
G02*
X112902000Y-87711000I150000J0D01*
G01*
X114552000Y-87711000D01*
G75*
G02*
X114702000Y-87861000I0J-150000D01*
G01*
X114702000Y-88161000D01*
G75*
G02*
X114552000Y-88311000I-150000J0D01*
G01*
X112902000Y-88311000D01*
G75*
G02*
X112752000Y-88161000I0J150000D01*
G01*
G37*
%TD.AperFunction*%
%TO.P,U1,10*%
%TO.N,Net-(R3-Pad2)*%
%TA.AperFunction,SMDPad,CuDef*%
G36*
G01*
X112752000Y-89431000D02*
X112752000Y-89131000D01*
G75*
G02*
X112902000Y-88981000I150000J0D01*
G01*
X114552000Y-88981000D01*
G75*
G02*
X114702000Y-89131000I0J-150000D01*
G01*
X114702000Y-89431000D01*
G75*
G02*
X114552000Y-89581000I-150000J0D01*
G01*
X112902000Y-89581000D01*
G75*
G02*
X112752000Y-89431000I0J150000D01*
G01*
G37*
%TD.AperFunction*%
%TO.P,U1,9*%
%TO.N,Net-(R2-Pad2)*%
%TA.AperFunction,SMDPad,CuDef*%
G36*
G01*
X112752000Y-90701000D02*
X112752000Y-90401000D01*
G75*
G02*
X112902000Y-90251000I150000J0D01*
G01*
X114552000Y-90251000D01*
G75*
G02*
X114702000Y-90401000I0J-150000D01*
G01*
X114702000Y-90701000D01*
G75*
G02*
X114552000Y-90851000I-150000J0D01*
G01*
X112902000Y-90851000D01*
G75*
G02*
X112752000Y-90701000I0J150000D01*
G01*
G37*
%TD.AperFunction*%
%TO.P,U1,8*%
%TO.N,GND*%
%TA.AperFunction,SMDPad,CuDef*%
G36*
G01*
X107802000Y-90701000D02*
X107802000Y-90401000D01*
G75*
G02*
X107952000Y-90251000I150000J0D01*
G01*
X109602000Y-90251000D01*
G75*
G02*
X109752000Y-90401000I0J-150000D01*
G01*
X109752000Y-90701000D01*
G75*
G02*
X109602000Y-90851000I-150000J0D01*
G01*
X107952000Y-90851000D01*
G75*
G02*
X107802000Y-90701000I0J150000D01*
G01*
G37*
%TD.AperFunction*%
%TO.P,U1,7*%
%TO.N,Net-(R1-Pad2)*%
%TA.AperFunction,SMDPad,CuDef*%
G36*
G01*
X107802000Y-89431000D02*
X107802000Y-89131000D01*
G75*
G02*
X107952000Y-88981000I150000J0D01*
G01*
X109602000Y-88981000D01*
G75*
G02*
X109752000Y-89131000I0J-150000D01*
G01*
X109752000Y-89431000D01*
G75*
G02*
X109602000Y-89581000I-150000J0D01*
G01*
X107952000Y-89581000D01*
G75*
G02*
X107802000Y-89431000I0J150000D01*
G01*
G37*
%TD.AperFunction*%
%TO.P,U1,6*%
%TO.N,Net-(D5-Pad1)*%
%TA.AperFunction,SMDPad,CuDef*%
G36*
G01*
X107802000Y-88161000D02*
X107802000Y-87861000D01*
G75*
G02*
X107952000Y-87711000I150000J0D01*
G01*
X109602000Y-87711000D01*
G75*
G02*
X109752000Y-87861000I0J-150000D01*
G01*
X109752000Y-88161000D01*
G75*
G02*
X109602000Y-88311000I-150000J0D01*
G01*
X107952000Y-88311000D01*
G75*
G02*
X107802000Y-88161000I0J150000D01*
G01*
G37*
%TD.AperFunction*%
%TO.P,U1,5*%
%TO.N,GND*%
%TA.AperFunction,SMDPad,CuDef*%
G36*
G01*
X107802000Y-86891000D02*
X107802000Y-86591000D01*
G75*
G02*
X107952000Y-86441000I150000J0D01*
G01*
X109602000Y-86441000D01*
G75*
G02*
X109752000Y-86591000I0J-150000D01*
G01*
X109752000Y-86891000D01*
G75*
G02*
X109602000Y-87041000I-150000J0D01*
G01*
X107952000Y-87041000D01*
G75*
G02*
X107802000Y-86891000I0J150000D01*
G01*
G37*
%TD.AperFunction*%
%TO.P,U1,4*%
%TA.AperFunction,SMDPad,CuDef*%
G36*
G01*
X107802000Y-85621000D02*
X107802000Y-85321000D01*
G75*
G02*
X107952000Y-85171000I150000J0D01*
G01*
X109602000Y-85171000D01*
G75*
G02*
X109752000Y-85321000I0J-150000D01*
G01*
X109752000Y-85621000D01*
G75*
G02*
X109602000Y-85771000I-150000J0D01*
G01*
X107952000Y-85771000D01*
G75*
G02*
X107802000Y-85621000I0J150000D01*
G01*
G37*
%TD.AperFunction*%
%TO.P,U1,3*%
%TO.N,VCC*%
%TA.AperFunction,SMDPad,CuDef*%
G36*
G01*
X107802000Y-84351000D02*
X107802000Y-84051000D01*
G75*
G02*
X107952000Y-83901000I150000J0D01*
G01*
X109602000Y-83901000D01*
G75*
G02*
X109752000Y-84051000I0J-150000D01*
G01*
X109752000Y-84351000D01*
G75*
G02*
X109602000Y-84501000I-150000J0D01*
G01*
X107952000Y-84501000D01*
G75*
G02*
X107802000Y-84351000I0J150000D01*
G01*
G37*
%TD.AperFunction*%
%TO.P,U1,2*%
%TO.N,Net-(D1-Pad1)*%
%TA.AperFunction,SMDPad,CuDef*%
G36*
G01*
X107802000Y-83081000D02*
X107802000Y-82781000D01*
G75*
G02*
X107952000Y-82631000I150000J0D01*
G01*
X109602000Y-82631000D01*
G75*
G02*
X109752000Y-82781000I0J-150000D01*
G01*
X109752000Y-83081000D01*
G75*
G02*
X109602000Y-83231000I-150000J0D01*
G01*
X107952000Y-83231000D01*
G75*
G02*
X107802000Y-83081000I0J150000D01*
G01*
G37*
%TD.AperFunction*%
%TO.P,U1,1*%
%TO.N,Net-(D4-Pad1)*%
%TA.AperFunction,SMDPad,CuDef*%
G36*
G01*
X107802000Y-81811000D02*
X107802000Y-81511000D01*
G75*
G02*
X107952000Y-81361000I150000J0D01*
G01*
X109602000Y-81361000D01*
G75*
G02*
X109752000Y-81511000I0J-150000D01*
G01*
X109752000Y-81811000D01*
G75*
G02*
X109602000Y-81961000I-150000J0D01*
G01*
X107952000Y-81961000D01*
G75*
G02*
X107802000Y-81811000I0J150000D01*
G01*
G37*
%TD.AperFunction*%
%TD*%
%TO.P,R13,2*%
%TO.N,VCC*%
%TA.AperFunction,SMDPad,CuDef*%
G36*
G01*
X115299500Y-98889000D02*
X114824500Y-98889000D01*
G75*
G02*
X114587000Y-98651500I0J237500D01*
G01*
X114587000Y-98151500D01*
G75*
G02*
X114824500Y-97914000I237500J0D01*
G01*
X115299500Y-97914000D01*
G75*
G02*
X115537000Y-98151500I0J-237500D01*
G01*
X115537000Y-98651500D01*
G75*
G02*
X115299500Y-98889000I-237500J0D01*
G01*
G37*
%TD.AperFunction*%
%TO.P,R13,1*%
%TO.N,Net-(J4-Pad4)*%
%TA.AperFunction,SMDPad,CuDef*%
G36*
G01*
X115299500Y-100714000D02*
X114824500Y-100714000D01*
G75*
G02*
X114587000Y-100476500I0J237500D01*
G01*
X114587000Y-99976500D01*
G75*
G02*
X114824500Y-99739000I237500J0D01*
G01*
X115299500Y-99739000D01*
G75*
G02*
X115537000Y-99976500I0J-237500D01*
G01*
X115537000Y-100476500D01*
G75*
G02*
X115299500Y-100714000I-237500J0D01*
G01*
G37*
%TD.AperFunction*%
%TD*%
%TO.P,R12,2*%
%TO.N,VCC*%
%TA.AperFunction,SMDPad,CuDef*%
G36*
G01*
X114029500Y-71965000D02*
X113554500Y-71965000D01*
G75*
G02*
X113317000Y-71727500I0J237500D01*
G01*
X113317000Y-71227500D01*
G75*
G02*
X113554500Y-70990000I237500J0D01*
G01*
X114029500Y-70990000D01*
G75*
G02*
X114267000Y-71227500I0J-237500D01*
G01*
X114267000Y-71727500D01*
G75*
G02*
X114029500Y-71965000I-237500J0D01*
G01*
G37*
%TD.AperFunction*%
%TO.P,R12,1*%
%TO.N,Net-(J3-Pad4)*%
%TA.AperFunction,SMDPad,CuDef*%
G36*
G01*
X114029500Y-73790000D02*
X113554500Y-73790000D01*
G75*
G02*
X113317000Y-73552500I0J237500D01*
G01*
X113317000Y-73052500D01*
G75*
G02*
X113554500Y-72815000I237500J0D01*
G01*
X114029500Y-72815000D01*
G75*
G02*
X114267000Y-73052500I0J-237500D01*
G01*
X114267000Y-73552500D01*
G75*
G02*
X114029500Y-73790000I-237500J0D01*
G01*
G37*
%TD.AperFunction*%
%TD*%
%TO.P,R11,2*%
%TO.N,VCC*%
%TA.AperFunction,SMDPad,CuDef*%
G36*
G01*
X115299500Y-57995000D02*
X114824500Y-57995000D01*
G75*
G02*
X114587000Y-57757500I0J237500D01*
G01*
X114587000Y-57257500D01*
G75*
G02*
X114824500Y-57020000I237500J0D01*
G01*
X115299500Y-57020000D01*
G75*
G02*
X115537000Y-57257500I0J-237500D01*
G01*
X115537000Y-57757500D01*
G75*
G02*
X115299500Y-57995000I-237500J0D01*
G01*
G37*
%TD.AperFunction*%
%TO.P,R11,1*%
%TO.N,Net-(J2-Pad4)*%
%TA.AperFunction,SMDPad,CuDef*%
G36*
G01*
X115299500Y-59820000D02*
X114824500Y-59820000D01*
G75*
G02*
X114587000Y-59582500I0J237500D01*
G01*
X114587000Y-59082500D01*
G75*
G02*
X114824500Y-58845000I237500J0D01*
G01*
X115299500Y-58845000D01*
G75*
G02*
X115537000Y-59082500I0J-237500D01*
G01*
X115537000Y-59582500D01*
G75*
G02*
X115299500Y-59820000I-237500J0D01*
G01*
G37*
%TD.AperFunction*%
%TD*%
%TO.P,R10,2*%
%TO.N,Net-(C1-Pad1)*%
%TA.AperFunction,SMDPad,CuDef*%
G36*
G01*
X109303000Y-69231500D02*
X109303000Y-69706500D01*
G75*
G02*
X109065500Y-69944000I-237500J0D01*
G01*
X108565500Y-69944000D01*
G75*
G02*
X108328000Y-69706500I0J237500D01*
G01*
X108328000Y-69231500D01*
G75*
G02*
X108565500Y-68994000I237500J0D01*
G01*
X109065500Y-68994000D01*
G75*
G02*
X109303000Y-69231500I0J-237500D01*
G01*
G37*
%TD.AperFunction*%
%TO.P,R10,1*%
%TO.N,VCC*%
%TA.AperFunction,SMDPad,CuDef*%
G36*
G01*
X111128000Y-69231500D02*
X111128000Y-69706500D01*
G75*
G02*
X110890500Y-69944000I-237500J0D01*
G01*
X110390500Y-69944000D01*
G75*
G02*
X110153000Y-69706500I0J237500D01*
G01*
X110153000Y-69231500D01*
G75*
G02*
X110390500Y-68994000I237500J0D01*
G01*
X110890500Y-68994000D01*
G75*
G02*
X111128000Y-69231500I0J-237500D01*
G01*
G37*
%TD.AperFunction*%
%TD*%
%TO.P,R8,2*%
%TO.N,Net-(J1-Pad2)*%
%TA.AperFunction,SMDPad,CuDef*%
G36*
G01*
X108220500Y-98215000D02*
X108695500Y-98215000D01*
G75*
G02*
X108933000Y-98452500I0J-237500D01*
G01*
X108933000Y-98952500D01*
G75*
G02*
X108695500Y-99190000I-237500J0D01*
G01*
X108220500Y-99190000D01*
G75*
G02*
X107983000Y-98952500I0J237500D01*
G01*
X107983000Y-98452500D01*
G75*
G02*
X108220500Y-98215000I237500J0D01*
G01*
G37*
%TD.AperFunction*%
%TO.P,R8,1*%
%TO.N,Net-(D5-Pad1)*%
%TA.AperFunction,SMDPad,CuDef*%
G36*
G01*
X108220500Y-96390000D02*
X108695500Y-96390000D01*
G75*
G02*
X108933000Y-96627500I0J-237500D01*
G01*
X108933000Y-97127500D01*
G75*
G02*
X108695500Y-97365000I-237500J0D01*
G01*
X108220500Y-97365000D01*
G75*
G02*
X107983000Y-97127500I0J237500D01*
G01*
X107983000Y-96627500D01*
G75*
G02*
X108220500Y-96390000I237500J0D01*
G01*
G37*
%TD.AperFunction*%
%TD*%
%TO.P,R7,2*%
%TO.N,Net-(D3-Pad2)*%
%TA.AperFunction,SMDPad,CuDef*%
G36*
G01*
X109049000Y-78883500D02*
X109049000Y-79358500D01*
G75*
G02*
X108811500Y-79596000I-237500J0D01*
G01*
X108311500Y-79596000D01*
G75*
G02*
X108074000Y-79358500I0J237500D01*
G01*
X108074000Y-78883500D01*
G75*
G02*
X108311500Y-78646000I237500J0D01*
G01*
X108811500Y-78646000D01*
G75*
G02*
X109049000Y-78883500I0J-237500D01*
G01*
G37*
%TD.AperFunction*%
%TO.P,R7,1*%
%TO.N,Net-(D4-Pad1)*%
%TA.AperFunction,SMDPad,CuDef*%
G36*
G01*
X110874000Y-78883500D02*
X110874000Y-79358500D01*
G75*
G02*
X110636500Y-79596000I-237500J0D01*
G01*
X110136500Y-79596000D01*
G75*
G02*
X109899000Y-79358500I0J237500D01*
G01*
X109899000Y-78883500D01*
G75*
G02*
X110136500Y-78646000I237500J0D01*
G01*
X110636500Y-78646000D01*
G75*
G02*
X110874000Y-78883500I0J-237500D01*
G01*
G37*
%TD.AperFunction*%
%TD*%
%TO.P,R3,2*%
%TO.N,Net-(R3-Pad2)*%
%TA.AperFunction,SMDPad,CuDef*%
G36*
G01*
X113046500Y-58591000D02*
X113521500Y-58591000D01*
G75*
G02*
X113759000Y-58828500I0J-237500D01*
G01*
X113759000Y-59328500D01*
G75*
G02*
X113521500Y-59566000I-237500J0D01*
G01*
X113046500Y-59566000D01*
G75*
G02*
X112809000Y-59328500I0J237500D01*
G01*
X112809000Y-58828500D01*
G75*
G02*
X113046500Y-58591000I237500J0D01*
G01*
G37*
%TD.AperFunction*%
%TO.P,R3,1*%
%TO.N,Net-(J2-Pad5)*%
%TA.AperFunction,SMDPad,CuDef*%
G36*
G01*
X113046500Y-56766000D02*
X113521500Y-56766000D01*
G75*
G02*
X113759000Y-57003500I0J-237500D01*
G01*
X113759000Y-57503500D01*
G75*
G02*
X113521500Y-57741000I-237500J0D01*
G01*
X113046500Y-57741000D01*
G75*
G02*
X112809000Y-57503500I0J237500D01*
G01*
X112809000Y-57003500D01*
G75*
G02*
X113046500Y-56766000I237500J0D01*
G01*
G37*
%TD.AperFunction*%
%TD*%
%TO.P,R2,2*%
%TO.N,Net-(R2-Pad2)*%
%TA.AperFunction,SMDPad,CuDef*%
G36*
G01*
X114029500Y-76029000D02*
X113554500Y-76029000D01*
G75*
G02*
X113317000Y-75791500I0J237500D01*
G01*
X113317000Y-75291500D01*
G75*
G02*
X113554500Y-75054000I237500J0D01*
G01*
X114029500Y-75054000D01*
G75*
G02*
X114267000Y-75291500I0J-237500D01*
G01*
X114267000Y-75791500D01*
G75*
G02*
X114029500Y-76029000I-237500J0D01*
G01*
G37*
%TD.AperFunction*%
%TO.P,R2,1*%
%TO.N,Net-(J3-Pad5)*%
%TA.AperFunction,SMDPad,CuDef*%
G36*
G01*
X114029500Y-77854000D02*
X113554500Y-77854000D01*
G75*
G02*
X113317000Y-77616500I0J237500D01*
G01*
X113317000Y-77116500D01*
G75*
G02*
X113554500Y-76879000I237500J0D01*
G01*
X114029500Y-76879000D01*
G75*
G02*
X114267000Y-77116500I0J-237500D01*
G01*
X114267000Y-77616500D01*
G75*
G02*
X114029500Y-77854000I-237500J0D01*
G01*
G37*
%TD.AperFunction*%
%TD*%
%TO.P,R1,2*%
%TO.N,Net-(R1-Pad2)*%
%TA.AperFunction,SMDPad,CuDef*%
G36*
G01*
X115299500Y-103715000D02*
X114824500Y-103715000D01*
G75*
G02*
X114587000Y-103477500I0J237500D01*
G01*
X114587000Y-102977500D01*
G75*
G02*
X114824500Y-102740000I237500J0D01*
G01*
X115299500Y-102740000D01*
G75*
G02*
X115537000Y-102977500I0J-237500D01*
G01*
X115537000Y-103477500D01*
G75*
G02*
X115299500Y-103715000I-237500J0D01*
G01*
G37*
%TD.AperFunction*%
%TO.P,R1,1*%
%TO.N,Net-(J4-Pad5)*%
%TA.AperFunction,SMDPad,CuDef*%
G36*
G01*
X115299500Y-105540000D02*
X114824500Y-105540000D01*
G75*
G02*
X114587000Y-105302500I0J237500D01*
G01*
X114587000Y-104802500D01*
G75*
G02*
X114824500Y-104565000I237500J0D01*
G01*
X115299500Y-104565000D01*
G75*
G02*
X115537000Y-104802500I0J-237500D01*
G01*
X115537000Y-105302500D01*
G75*
G02*
X115299500Y-105540000I-237500J0D01*
G01*
G37*
%TD.AperFunction*%
%TD*%
D17*
%TO.P,D6,1*%
%TO.N,VCC*%
X113538000Y-69788000D03*
%TO.P,D6,2*%
%TO.N,GND*%
X113538000Y-68388000D03*
%TD*%
D18*
%TO.P,D5,2*%
%TO.N,GND*%
X112776000Y-99017000D03*
%TO.P,D5,1*%
%TO.N,Net-(D5-Pad1)*%
X112776000Y-96817000D03*
%TD*%
%TO.P,D4,2*%
%TO.N,GND*%
X108712000Y-92753000D03*
%TO.P,D4,1*%
%TO.N,Net-(D4-Pad1)*%
X108712000Y-94953000D03*
%TD*%
%TO.P,D3,2*%
%TO.N,Net-(D3-Pad2)*%
X108501000Y-74295000D03*
%TO.P,D3,1*%
%TO.N,Net-(C1-Pad1)*%
X110701000Y-74295000D03*
%TD*%
%TO.P,D2,2*%
%TO.N,Net-(D2-Pad2)*%
X108501000Y-71755000D03*
%TO.P,D2,1*%
%TO.N,Net-(C1-Pad1)*%
X110701000Y-71755000D03*
%TD*%
%TO.P,D1,2*%
%TO.N,GND*%
X112776000Y-102954000D03*
%TO.P,D1,1*%
%TO.N,Net-(D1-Pad1)*%
X112776000Y-100754000D03*
%TD*%
D19*
%TO.N,GND*%
X113030000Y-66294000D03*
X112268000Y-68580000D03*
X107188000Y-85598000D03*
X107188000Y-86868000D03*
X112776000Y-103886000D03*
X108554197Y-91120574D03*
X112014000Y-93472000D03*
X108966004Y-56896000D03*
X108500000Y-101000000D03*
X108500000Y-100000000D03*
X111500000Y-100000000D03*
X107208119Y-93500000D03*
%TO.N,Net-(D1-Pad1)*%
X110896400Y-82956400D03*
X113334800Y-101879400D03*
%TO.N,Net-(D4-Pad1)*%
X110032800Y-80873600D03*
X112000000Y-94500000D03*
%TD*%
D20*
%TO.N,GND*%
X113476000Y-68388000D02*
X113538000Y-68326000D01*
X112522000Y-68388000D02*
X113476000Y-68388000D01*
X107315000Y-85471000D02*
X107188000Y-85598000D01*
X109285000Y-85471000D02*
X107315000Y-85471000D01*
X107315000Y-86741000D02*
X107188000Y-86868000D01*
X109285000Y-86741000D02*
X107315000Y-86741000D01*
X112776000Y-102954000D02*
X112776000Y-103886000D01*
X109285000Y-90551000D02*
X108715426Y-91120574D01*
X108715426Y-91120574D02*
X108554197Y-91120574D01*
X110490000Y-92813500D02*
X111355500Y-92813500D01*
X111355500Y-92813500D02*
X112014000Y-93472000D01*
X112965500Y-66358500D02*
X113030000Y-66294000D01*
X110998000Y-66358500D02*
X112965500Y-66358500D01*
X111252000Y-55880000D02*
X110236000Y-56896000D01*
X110236000Y-56896000D02*
X108966004Y-56896000D01*
X108685500Y-100814500D02*
X108500000Y-101000000D01*
X110363000Y-100814500D02*
X108685500Y-100814500D01*
X110363000Y-98933000D02*
X110363000Y-98702500D01*
X108500000Y-100000000D02*
X110363000Y-98933000D01*
X111555122Y-99017000D02*
X112776000Y-99017000D01*
X111500000Y-100000000D02*
X111555122Y-99017000D01*
X108669000Y-92753000D02*
X108712000Y-92710000D01*
X107873996Y-92753000D02*
X108669000Y-92753000D01*
X107208119Y-93500000D02*
X107873996Y-92753000D01*
X110490000Y-92813500D02*
X108813500Y-92813500D01*
%TO.N,Net-(C1-Pad1)*%
X111518510Y-69966632D02*
X110744000Y-70741142D01*
X109681010Y-68603490D02*
X111150632Y-68603490D01*
X111150632Y-68603490D02*
X111518510Y-68971368D01*
X111518510Y-68971368D02*
X111518510Y-69966632D01*
X108815500Y-69469000D02*
X109681010Y-68603490D01*
X110744000Y-70741142D02*
X110744000Y-71882000D01*
X110701000Y-74295000D02*
X110701000Y-71671000D01*
X110701000Y-71671000D02*
X110744000Y-71628000D01*
X108316490Y-64657510D02*
X111252000Y-61722000D01*
X108316490Y-69200490D02*
X108316490Y-64657510D01*
X108712000Y-69596000D02*
X108316490Y-69200490D01*
D21*
%TO.N,VCC*%
X113180480Y-71477500D02*
X112164490Y-70461510D01*
X113792000Y-71477500D02*
X113180480Y-71477500D01*
X111125000Y-84201000D02*
X112161479Y-83164521D01*
X109285000Y-84201000D02*
X111125000Y-84201000D01*
X110617000Y-69469000D02*
X109933499Y-70152501D01*
X110640500Y-69469000D02*
X110617000Y-69469000D01*
X111518510Y-76157764D02*
X111518510Y-77622090D01*
X111076236Y-75715490D02*
X111518510Y-76157764D01*
X110689988Y-75715490D02*
X111076236Y-75715490D01*
X109933499Y-74959001D02*
X110689988Y-75715490D01*
X109933499Y-70152501D02*
X109933499Y-74959001D01*
D20*
X112161479Y-78265059D02*
X112071210Y-78174790D01*
D21*
X111518510Y-77622090D02*
X111817210Y-77920790D01*
X111817210Y-77920790D02*
X112071210Y-78174790D01*
X112161479Y-83164521D02*
X112161479Y-83085517D01*
X112164490Y-70461510D02*
X111637468Y-70988532D01*
X111637468Y-75099513D02*
X111021490Y-75715490D01*
X111637468Y-70988532D02*
X111637468Y-75099513D01*
X113244498Y-81534000D02*
X114046000Y-81534000D01*
X112665008Y-82113490D02*
X113244498Y-81534000D01*
X112625506Y-82113490D02*
X112665008Y-82113490D01*
X112234490Y-82544008D02*
X112234490Y-82504506D01*
X112234490Y-82504506D02*
X112625506Y-82113490D01*
X112161479Y-82617019D02*
X112234490Y-82544008D01*
X112161479Y-83085517D02*
X112161479Y-82617019D01*
X112161479Y-90974855D02*
X112579098Y-91392476D01*
X112161479Y-83164521D02*
X112161479Y-90974855D01*
X112579098Y-91392476D02*
X112927372Y-91392477D01*
X112927372Y-91392477D02*
X115062000Y-93527105D01*
X115062000Y-93527105D02*
X115062000Y-98298000D01*
X110808500Y-50735500D02*
X109284500Y-50735500D01*
X106934000Y-69142746D02*
X108252764Y-70461510D01*
X109624490Y-70461510D02*
X109933499Y-70152501D01*
X108252764Y-70461510D02*
X109624490Y-70461510D01*
X109284500Y-50735500D02*
X106934000Y-53086000D01*
X106934000Y-53086000D02*
X106934000Y-69142746D01*
X110998000Y-50546000D02*
X110808500Y-50735500D01*
X114607990Y-55361490D02*
X114607990Y-56949990D01*
X114607990Y-56949990D02*
X115062000Y-57404000D01*
X109982000Y-50735500D02*
X114607990Y-55361490D01*
X113538000Y-69850000D02*
X112522000Y-69850000D01*
X112776000Y-69850000D02*
X113538000Y-69850000D01*
X112164490Y-70461510D02*
X112776000Y-69850000D01*
X112161479Y-78265059D02*
X111817210Y-77920790D01*
X112161479Y-83085517D02*
X112161479Y-78265059D01*
D20*
%TO.N,Net-(D1-Pad1)*%
X111264510Y-78623368D02*
X110490000Y-77848858D01*
X110490000Y-77848858D02*
X110490000Y-76962000D01*
X109285000Y-82931000D02*
X111264510Y-80951490D01*
X111264510Y-80951490D02*
X111264510Y-78623368D01*
X110871000Y-82931000D02*
X110896400Y-82956400D01*
X108777000Y-82931000D02*
X110871000Y-82931000D01*
X112776000Y-101320600D02*
X113334800Y-101879400D01*
X112776000Y-100754000D02*
X112776000Y-101320600D01*
X110974500Y-102639500D02*
X112776000Y-100838000D01*
X110500000Y-102639500D02*
X110974500Y-102639500D01*
%TO.N,Net-(D2-Pad2)*%
X109141501Y-76254999D02*
X109141501Y-73732599D01*
X108688500Y-76708000D02*
X109141501Y-76254999D01*
X108501000Y-73092098D02*
X109141501Y-73732599D01*
X108501000Y-71755000D02*
X108501000Y-73092098D01*
X109141501Y-73732599D02*
X109063401Y-73654499D01*
X102565200Y-73253600D02*
X103269258Y-73253600D01*
X104568757Y-71954101D02*
X108233499Y-71954101D01*
X103269258Y-73253600D02*
X104568757Y-71954101D01*
X108233499Y-71954101D02*
X108356400Y-71831200D01*
X105641643Y-82173099D02*
X103923315Y-82173099D01*
X108087652Y-80970490D02*
X106844252Y-80970490D01*
X109439510Y-77459010D02*
X109439510Y-79618632D01*
X108688500Y-76708000D02*
X109439510Y-77459010D01*
X106844252Y-80970490D02*
X105641643Y-82173099D01*
X103923315Y-82173099D02*
X102733614Y-83362800D01*
X109439510Y-79618632D02*
X108087652Y-80970490D01*
X102415700Y-73053300D02*
X102692200Y-73329800D01*
X97696700Y-73053300D02*
X102415700Y-73053300D01*
X97000000Y-73750000D02*
X97696700Y-73053300D01*
X97003614Y-84750000D02*
X97000000Y-84750000D01*
X98340014Y-83413600D02*
X97003614Y-84750000D01*
X102565200Y-83413600D02*
X98340014Y-83413600D01*
%TO.N,Net-(D3-Pad2)*%
X105654499Y-73654499D02*
X105000000Y-73000000D01*
X107810490Y-78369990D02*
X107810490Y-74891710D01*
X108561500Y-79121000D02*
X107810490Y-78369990D01*
X107810490Y-74891710D02*
X108356400Y-74345800D01*
X105105200Y-73253600D02*
X107416600Y-73253600D01*
X107416600Y-73253600D02*
X108407200Y-74244200D01*
X106533599Y-77093099D02*
X107810490Y-78369990D01*
X102565200Y-78333600D02*
X103269258Y-78333600D01*
X103269258Y-78333600D02*
X104509759Y-77093099D01*
X104509759Y-77093099D02*
X106533599Y-77093099D01*
X92969499Y-76463701D02*
X94183200Y-75250000D01*
X92969499Y-78586441D02*
X92969499Y-76463701D01*
X97880015Y-78333600D02*
X97000000Y-79213615D01*
X93633058Y-79250000D02*
X92969499Y-78586441D01*
X97000000Y-79250000D02*
X93633058Y-79250000D01*
X97000000Y-79213615D02*
X97000000Y-79250000D01*
X102565200Y-78333600D02*
X97880015Y-78333600D01*
%TO.N,Net-(D4-Pad1)*%
X110640500Y-79121000D02*
X110640500Y-80367500D01*
X110083600Y-80924400D02*
X110032800Y-80873600D01*
X110032800Y-80873600D02*
X109220000Y-81788000D01*
X110640500Y-80367500D02*
X110083600Y-80924400D01*
X110490000Y-94638500D02*
X109044100Y-94638500D01*
X109044100Y-94638500D02*
X108839000Y-94843600D01*
X111150400Y-94665800D02*
X110591600Y-94665800D01*
X112000000Y-94500000D02*
X111150400Y-94665800D01*
%TO.N,Net-(D5-Pad1)*%
X108458000Y-96877500D02*
X108458000Y-96544098D01*
X108777000Y-88011000D02*
X107802000Y-88011000D01*
X112588856Y-97004144D02*
X108688144Y-97004144D01*
X112776000Y-96817000D02*
X112588856Y-97004144D01*
X108688144Y-97004144D02*
X108458000Y-96774000D01*
X112804502Y-93092558D02*
X112804502Y-96745498D01*
X111299162Y-91935490D02*
X112045170Y-92681498D01*
X107802000Y-88011000D02*
X107411490Y-88401510D01*
X108251162Y-91935490D02*
X111299162Y-91935490D01*
X107411490Y-88401510D02*
X107411490Y-91095818D01*
X107411490Y-91095818D02*
X108251162Y-91935490D01*
X112045170Y-92681498D02*
X112393442Y-92681498D01*
X112393442Y-92681498D02*
X112804502Y-93092558D01*
X112804502Y-96745498D02*
X112776000Y-96774000D01*
X107411490Y-88401510D02*
X107411490Y-88661490D01*
%TO.N,Net-(J1-Pad2)*%
X106402200Y-87954658D02*
X106402200Y-96597800D01*
X105700641Y-87253099D02*
X106402200Y-87954658D01*
X102565200Y-88493600D02*
X103269258Y-88493600D01*
X103269258Y-88493600D02*
X104509759Y-87253099D01*
X106402200Y-96597800D02*
X108483400Y-98679000D01*
X104509759Y-87253099D02*
X105700641Y-87253099D01*
X101550930Y-88493600D02*
X100433330Y-89611200D01*
X97866000Y-89611200D02*
X96977200Y-90500000D01*
X102565200Y-88493600D02*
X101550930Y-88493600D01*
X100433330Y-89611200D02*
X97866000Y-89611200D01*
%TO.N,Net-(J2-Pad5)*%
X114196490Y-58316490D02*
X114196490Y-59842632D01*
X114196490Y-59842632D02*
X117091858Y-62738000D01*
X113284000Y-57404000D02*
X114196490Y-58316490D01*
X117091858Y-62738000D02*
X120142000Y-62738000D01*
%TO.N,Net-(J2-Pad4)*%
X116586000Y-59436000D02*
X117602000Y-60452000D01*
X115062000Y-59436000D02*
X116586000Y-59436000D01*
%TO.N,Net-(J3-Pad5)*%
X119958000Y-84340000D02*
X117614000Y-84340000D01*
X116027499Y-82753499D02*
X116027499Y-79451499D01*
X117614000Y-84340000D02*
X116027499Y-82753499D01*
X116027499Y-79451499D02*
X114046000Y-77470000D01*
X114046000Y-77470000D02*
X113792000Y-77470000D01*
%TO.N,Net-(J3-Pad4)*%
X113792000Y-73406000D02*
X113792000Y-74165858D01*
X113792000Y-74165858D02*
X112926490Y-75031368D01*
X117094000Y-79292858D02*
X117094000Y-81788000D01*
X113363348Y-76488490D02*
X114289632Y-76488490D01*
X112926490Y-76051632D02*
X113363348Y-76488490D01*
X114289632Y-76488490D02*
X117094000Y-79292858D01*
X112926490Y-75031368D02*
X112926490Y-76051632D01*
%TO.N,Net-(J4-Pad5)*%
X115062000Y-105052500D02*
X119022500Y-105052500D01*
X119022500Y-105052500D02*
X119022500Y-105306500D01*
X119022500Y-105306500D02*
X119634000Y-105918000D01*
%TO.N,Net-(J4-Pad4)*%
X117367500Y-103430000D02*
X115062000Y-101124500D01*
X115062000Y-101124500D02*
X115062000Y-100330000D01*
%TO.N,Net-(R1-Pad2)*%
X109285000Y-89281000D02*
X109466345Y-89281000D01*
X112285832Y-92100487D02*
X112634104Y-92100487D01*
X109466345Y-89281000D02*
X112285832Y-92100487D01*
X112634104Y-92100487D02*
X114196490Y-93662873D01*
X114196490Y-102258490D02*
X115062000Y-103124000D01*
X114196490Y-93662873D02*
X114196490Y-102258490D01*
%TO.N,Net-(R2-Pad2)*%
X121398501Y-85031441D02*
X121398501Y-82775687D01*
X121398501Y-82775687D02*
X114060814Y-75438000D01*
X115878942Y-90551000D02*
X121398501Y-85031441D01*
X114235000Y-90551000D02*
X115878942Y-90551000D01*
X114060814Y-75438000D02*
X113792000Y-75438000D01*
%TO.N,Net-(R3-Pad2)*%
X113284000Y-59751815D02*
X113284000Y-59182000D01*
X114681000Y-61148815D02*
X113284000Y-59751815D01*
X114681000Y-71964142D02*
X114681000Y-61148815D01*
X114289632Y-72355510D02*
X114681000Y-71964142D01*
X113363348Y-72355510D02*
X114289632Y-72355510D01*
X112522000Y-73196858D02*
X113363348Y-72355510D01*
X112345479Y-74790706D02*
X112522000Y-74614185D01*
X112345479Y-77353152D02*
X112345479Y-74790706D01*
X115062000Y-80323673D02*
X113210989Y-78472662D01*
X113210989Y-78472662D02*
X113210989Y-78218662D01*
X112522000Y-74614185D02*
X112522000Y-73196858D01*
X113210989Y-78218662D02*
X112345479Y-77353152D01*
X115092510Y-80592510D02*
X115062000Y-80562000D01*
X114702000Y-89281000D02*
X115092510Y-88890490D01*
X115092510Y-88890490D02*
X115092510Y-80592510D01*
X113727000Y-89281000D02*
X114702000Y-89281000D01*
X115062000Y-80562000D02*
X115062000Y-80323673D01*
%TO.N,Net-(J1-Pad25)*%
X96656358Y-57785000D02*
X94250000Y-60191358D01*
X102336600Y-57785000D02*
X96656358Y-57785000D01*
X94250000Y-60191358D02*
X94250000Y-61250000D01*
X105105200Y-60553600D02*
X102336600Y-57785000D01*
%TO.N,Net-(J1-Pad24)*%
X103864699Y-64334101D02*
X101969759Y-64334101D01*
X101969759Y-64334101D02*
X101606159Y-63970501D01*
X105105200Y-63093600D02*
X103864699Y-64334101D01*
X96029499Y-63970501D02*
X94529499Y-63970501D01*
X101606159Y-63970501D02*
X96029499Y-63970501D01*
X96029499Y-63970501D02*
X94856901Y-63970501D01*
X94529499Y-63970501D02*
X94250000Y-64250000D01*
%TO.N,Net-(J1-Pad23)*%
X98122743Y-66874101D02*
X94250000Y-67000000D01*
X103864699Y-66874101D02*
X98122743Y-66874101D01*
X105105200Y-65633600D02*
X103864699Y-66874101D01*
%TO.N,Net-(J1-Pad22)*%
X99489499Y-69510501D02*
X94473499Y-69510501D01*
X94473499Y-69510501D02*
X94234000Y-69750000D01*
X99585899Y-69414101D02*
X99489499Y-69510501D01*
X103864699Y-69414101D02*
X99585899Y-69414101D01*
X105105200Y-68173600D02*
X103864699Y-69414101D01*
%TO.N,Net-(J1-Pad21)*%
X94944200Y-71805800D02*
X94250000Y-72500000D01*
X95953858Y-71805800D02*
X94944200Y-71805800D01*
X96428559Y-72280501D02*
X95953858Y-71805800D01*
X104987586Y-70713600D02*
X103747085Y-71954101D01*
X103747085Y-71954101D02*
X97897841Y-71954101D01*
X97571441Y-72280501D02*
X96428559Y-72280501D01*
X97897841Y-71954101D02*
X97571441Y-72280501D01*
X105105200Y-70713600D02*
X104987586Y-70713600D01*
%TO.N,Net-(J1-Pad19)*%
X97571441Y-75439499D02*
X99225041Y-77093099D01*
X99225041Y-77093099D02*
X103688087Y-77093099D01*
X94250000Y-78000000D02*
X94250000Y-77618058D01*
X96428559Y-75439499D02*
X97571441Y-75439499D01*
X94250000Y-77618058D02*
X96428559Y-75439499D01*
X103688087Y-77093099D02*
X104860586Y-75920600D01*
X104860586Y-75920600D02*
X105232200Y-75920600D01*
%TO.N,Net-(J1-Pad18)*%
X94160000Y-80750000D02*
X94931700Y-79978300D01*
X101624558Y-79978300D02*
X101969759Y-79633099D01*
X95816358Y-79978300D02*
X96428559Y-80590501D01*
X97571441Y-80590501D02*
X98183642Y-79978300D01*
X103780301Y-79633099D02*
X105054400Y-78359000D01*
X96428559Y-80590501D02*
X97571441Y-80590501D01*
X98183642Y-79978300D02*
X101624558Y-79978300D01*
X101969759Y-79633099D02*
X103780301Y-79633099D01*
X94931700Y-79978300D02*
X95816358Y-79978300D01*
%TO.N,Net-(J1-Pad17)*%
X104274142Y-81000600D02*
X105029000Y-81000600D01*
X101394558Y-82748300D02*
X101969759Y-82173099D01*
X98183642Y-82748300D02*
X101394558Y-82748300D01*
X103101643Y-82173099D02*
X104274142Y-81000600D01*
X95750000Y-83250000D02*
X95860501Y-83360501D01*
X95860501Y-83360501D02*
X97571441Y-83360501D01*
X94500000Y-83250000D02*
X95750000Y-83250000D01*
X101969759Y-82173099D02*
X103101643Y-82173099D01*
X97571441Y-83360501D02*
X98183642Y-82748300D01*
X94250000Y-83500000D02*
X94500000Y-83250000D01*
%TO.N,Net-(J1-Pad16)*%
X98335817Y-86130501D02*
X99108159Y-85358159D01*
X94279499Y-86130501D02*
X98335817Y-86130501D01*
X101324699Y-85358159D02*
X102028757Y-84654101D01*
X94160000Y-86250000D02*
X94279499Y-86130501D01*
X103915499Y-84654101D02*
X105105200Y-83464400D01*
X99108159Y-85358159D02*
X101324699Y-85358159D01*
X102028757Y-84654101D02*
X103915499Y-84654101D01*
%TO.N,Net-(J1-Pad15)*%
X104835186Y-86106000D02*
X105079800Y-86106000D01*
X102028757Y-87194101D02*
X103747085Y-87194101D01*
X100322357Y-88900501D02*
X102028757Y-87194101D01*
X94259499Y-88900501D02*
X100322357Y-88900501D01*
X103747085Y-87194101D02*
X104835186Y-86106000D01*
X94160000Y-89000000D02*
X94259499Y-88900501D01*
%TO.N,Net-(J1-Pad14)*%
X102028757Y-89734101D02*
X103940899Y-89734101D01*
X100092357Y-91670501D02*
X102028757Y-89734101D01*
X103940899Y-89734101D02*
X105105200Y-88569800D01*
X94239499Y-91670501D02*
X100092357Y-91670501D01*
X94160000Y-91750000D02*
X94239499Y-91670501D01*
%TO.N,Net-(J1-Pad13)*%
X102463600Y-60553600D02*
X102565200Y-60553600D01*
X101113300Y-59203300D02*
X102463600Y-60553600D01*
X97546700Y-59203300D02*
X101113300Y-59203300D01*
X97000000Y-59750000D02*
X97546700Y-59203300D01*
%TO.N,Net-(J1-Pad12)*%
X101368700Y-61973300D02*
X102387400Y-62992000D01*
X97000000Y-62750000D02*
X97776700Y-61973300D01*
X97776700Y-61973300D02*
X101368700Y-61973300D01*
%TO.N,Net-(J1-Pad11)*%
X102396785Y-65582800D02*
X102489000Y-65582800D01*
X101557285Y-64743300D02*
X102396785Y-65582800D01*
X97756700Y-64743300D02*
X101557285Y-64743300D01*
X97000000Y-65500000D02*
X97756700Y-64743300D01*
%TO.N,Net-(J1-Pad10)*%
X101955700Y-67513300D02*
X102565200Y-68122800D01*
X97736700Y-67513300D02*
X101955700Y-67513300D01*
X97000000Y-68250000D02*
X97736700Y-67513300D01*
%TO.N,Net-(J1-Pad9)*%
X102134900Y-70283300D02*
X102565200Y-70713600D01*
X97716700Y-70283300D02*
X102134900Y-70283300D01*
X97000000Y-71000000D02*
X97716700Y-70283300D01*
%TO.N,Net-(J1-Pad5)*%
X98110015Y-80873600D02*
X97078800Y-81904815D01*
X97078800Y-81904815D02*
X97078800Y-82000000D01*
X102565200Y-80873600D02*
X98110015Y-80873600D01*
%TO.N,Net-(J1-Pad3)*%
X97537990Y-87750000D02*
X97053400Y-87750000D01*
X102565200Y-85953600D02*
X99334390Y-85953600D01*
X99334390Y-85953600D02*
X97537990Y-87750000D01*
%TO.N,Net-(J1-Pad1)*%
X97743200Y-92506800D02*
X97000000Y-93250000D01*
X101092000Y-92506800D02*
X97743200Y-92506800D01*
X102565200Y-91033600D02*
X101092000Y-92506800D01*
%TD*%
M02*
